<svg xmlns="http://www.w3.org/2000/svg" viewBox="0 0 366.56 383.03"><defs><style>.cls-1{fill:#a1001d;}.cls-2{fill:#a91631;}.cls-3{fill:#d6919d;}.cls-4{fill:#c97080;}.cls-5{fill:#6da444;}</style></defs><g id="Слой_2" data-name="Слой 2"><g id="Слой_1-2" data-name="Слой 1"><path class="cls-1" d="M158.07,0h3c.41.45,1,.35,1.49.37s1.08.08,1.5-.37h3a7.85,7.85,0,0,0,5.24,0h4.49A7.85,7.85,0,0,0,182,0h3a1,1,0,0,0,1.5,0h3c4.15.78,8.37.67,12.56,1,17.66,1.26,34.13,6.91,50.19,13.82a185.42,185.42,0,0,1,58.57,40.08c29.38,29.52,47.83,64.8,54.21,106,2.18,14.12,1.47,28.53,1.23,42.86a158.84,158.84,0,0,1-6.14,41.22c-1,3.36-2,6.68-3.21,10-.67,1.9-1.46,3.76-3.73,4.33a18.27,18.27,0,0,1-5.93.53q-120.3,0-240.59,0c-2.45,0-5,.48-7.22-1.2a5.13,5.13,0,0,1-1.28-3.78c-.07-1.75-.06-3.49-.06-5.23q0-113,0-226c0-2.61-.19-5.24.62-7.78s3.07-3.07,5.14-3.89C121,5.05,138.52.45,157.05.37A1.84,1.84,0,0,0,158.07,0Z"/><path class="cls-2" d="M172.29,0a4.47,4.47,0,0,1-5.24,0Z"/><path class="cls-2" d="M182,0a4.47,4.47,0,0,1-5.24,0Z"/><path class="cls-3" d="M162.53.63c-.61.08-1.24.2-1.46-.63h1.49Q163.31.36,162.53.63Z"/><path class="cls-4" d="M162.53.63q0-.32,0-.63h1.5C163.75.71,163.17.74,162.53.63Z"/><path class="cls-4" d="M186.51,0c-.5,1-1,.79-1.5,0Z"/><path class="cls-5" d="M99.8,368.11c0-3.49-.16-7-.16-10.47q0-49.74.11-99.49l249.76,0c1.49,0,3,0,4.48,0a183.57,183.57,0,0,1-47.69,72.24c-39.28,36.8-86.09,54.12-139.81,52.48a184.45,184.45,0,0,1-63.2-13.52C102.14,369,101,368.54,99.8,368.11Z"/><path class="cls-1" d="M47.5,335.15c1.49-4.77,4.57-8.72,6.84-13.09s4.95-8.88,7.94-14.2a13.86,13.86,0,0,0,.62,1.68c6.29,11.26,12.56,22.52,18.92,33.74a3.47,3.47,0,0,1,0,4.09c-1.89,2.87-3,6.22-5.32,8.84A255.86,255.86,0,0,1,47.5,335.15Z"/><path class="cls-1" d="M40.61,139.13c2,.2,2-1.66,2.56-2.69,6.27-11,12.44-22.12,18.89-33.63,1.59,2.77,3,5.2,4.4,7.67,5,8.9,10,17.82,15,26.71.89,1.57,1.49,2.86.41,4.77-6.41,11.39-12.65,22.87-19,34.31a10,10,0,0,1-.92,1.11c-6.34-11.49-12.53-22.78-18.82-34-.58-1-.52-2.92-2.54-2.69A1.14,1.14,0,0,1,40.61,139.13Z"/><path class="cls-1" d="M40.57,241.78c2,.33,2-1.58,2.57-2.6,6.26-11,12.43-22.07,18.63-33.13,1.26.17,1.4,1.32,1.83,2.08,6,10.6,11.9,21.24,17.88,31.84.9,1.59,1.4,2.89.34,4.77C75.48,256,69.3,267.33,63.06,278.64a16.44,16.44,0,0,1-1.1,1.47c-6.35-11.51-12.53-22.78-18.8-34-.59-1.06-.62-2.84-2.52-2.81A1.1,1.1,0,0,1,40.57,241.78Z"/><path class="cls-1" d="M40.57,241.78l.07,1.52L20.53,280.48l-9.3-16.88Q6.08,254.3.94,245c-.73-1.32-1.34-2.42-.4-4.08,6.46-11.34,12.8-22.75,19.19-34.13.16-.29.51-.47,1.06-1Z"/><path class="cls-1" d="M40.61,139.13v1.55Q30.77,158.86,21,177c-1.48-.16-1.59-1.33-2-2.13Q10,158.7,1.1,142.54c-.7-1.27-1.66-2.41-.69-4.11,6.6-11.65,13.13-23.35,20.11-35.79C27.42,115.17,34,127.15,40.61,139.13Z"/><path class="cls-1" d="M47.42,48.61c8-7.86,17.25-14.08,26.61-20.15l2.48-1.63c2.75,2.62,3.83,6.28,5.85,9.36a1.94,1.94,0,0,1,0,2.12C75.66,50.37,69,62.43,62.14,74.85Z"/></g></g></svg>