<svg width="1920" height="381" viewBox="0 0 1920 381" fill="none" xmlns="http://www.w3.org/2000/svg">
<mask id="mask0_934_13185" style="mask-type:alpha" maskUnits="userSpaceOnUse" x="0" y="0" width="1920" height="381">
<rect width="1920" height="381" fill="#071031"/>
</mask>
<g mask="url(#mask0_934_13185)">
<g opacity="0.2">
<path d="M1533.45 172.345H1532.47C1504.54 171.78 1477.96 164.036 1451.22 148.668C1427.39 134.967 1405.68 116.668 1384.69 98.9204C1353.35 72.4736 1320.93 45.1394 1281.16 33.1731C1255.98 25.6034 1224.45 27.1093 1184.79 37.7848C1150.09 47.1158 1114.87 61.6905 1080.95 75.7945C1057.73 85.4213 1035.8 94.5237 1016.59 100.749C923.157 131.068 789.592 134.927 691.777 110.161C676.02 106.127 661.741 102.093 647.932 98.1809C618.151 89.7238 592.43 82.423 565.15 79.613C535.409 76.5609 506.381 79.3172 473.817 88.2986C461.393 91.7137 449.064 95.6935 437.151 99.5388C399.128 111.814 363.202 123.404 322.235 119.317C291.741 116.278 264.124 104.164 237.409 92.4263C220.36 84.9373 202.72 77.2063 184.273 71.7475C159.915 64.4153 134.999 59.0866 109.773 55.8149C84.5345 52.5319 58.9984 52.216 33.6864 54.8737C22.5941 56.0972 9.3236 60.5073 -4.72669 65.1593C-36.081 75.566 -71.6302 87.3574 -94.2586 66.9879L-94.4199 66.84L-94.2182 66.7728C-38.6894 45.7847 11.8916 36.1176 60.4021 37.1932C111.494 38.3764 160.542 51.4317 210.249 77.1122C233.779 89.2129 256.178 97.4817 278.713 102.214C299.71 106.587 321.214 108.012 342.604 106.45C385.952 103.519 430.335 89.7238 477.312 75.1357C546.959 53.4889 594.931 65.482 650.474 79.371C676.732 85.9322 703.878 92.7221 736.12 96.8498C787.077 103.438 841.544 109.381 894.532 108.372C953.328 107.256 1003.73 97.7372 1048.63 79.2634C1064.86 72.5408 1081.38 64.9711 1097.35 57.6166C1134.02 40.7159 1171.92 23.2371 1210.21 15.1699C1229.3 10.9402 1248.9 9.58074 1268.39 11.1363C1289.23 12.9535 1309.55 18.5962 1328.34 27.7816C1355.23 40.689 1380.59 60.7896 1405.11 80.218C1429.64 99.6464 1454.73 119.424 1481.62 132.775C1494.97 139.534 1509.22 144.364 1523.93 147.122C1539.49 149.937 1555.43 149.937 1570.99 147.122C1600.03 141.985 1647.55 109.327 1697.86 74.7593C1740.49 45.4621 1784.59 15.1699 1826.09 -5.38788C1873.52 -28.8767 1908.64 -34.7657 1933.45 -23.3911C1945.25 -18.013 1954.96 -8.46684 1962.12 4.84395C1969.83 19.0825 1975.03 38.1882 1977.59 61.5963H1977.32C1973.28 40.8907 1967.15 23.9496 1958.91 11.459C1951.18 -0.359358 1941.43 -8.70885 1929.79 -13.4819C1916.34 -18.9676 1899.99 -19.7743 1881.08 -15.8886C1864.1 -12.4063 1845 -5.28031 1822.74 5.87924C1781.57 26.5311 1736.98 57.3476 1693.88 87.1423C1630.52 130.933 1570.61 172.331 1533.45 172.345ZM1246.33 28.1984C1258.15 28.0628 1269.93 29.6619 1281.28 32.9445C1321.08 44.9242 1353.53 72.2853 1384.89 98.7456C1405.88 116.44 1427.57 134.738 1451.38 148.412C1478.08 163.767 1504.62 171.498 1532.5 172.062H1533.49C1570.56 172.062 1630.43 130.678 1693.78 86.8868C1736.9 57.0922 1781.49 26.2757 1822.68 5.61033C1844.98 -5.56267 1864.08 -12.6886 1881.09 -16.1844C1900.06 -20.0835 1916.5 -19.2634 1929.96 -13.7643C1941.59 -9.00464 1951.48 -0.574478 1959.21 11.2842C1966.94 23.1429 1973.02 39.0218 1977.01 58.3426C1974.32 36.4537 1969.28 18.4909 1961.95 4.93807C1954.73 -8.39961 1945.13 -17.8113 1933.38 -23.1894C1908.64 -34.5237 1873.6 -28.5675 1826.25 -5.1862C1784.77 15.3581 1740.68 45.6503 1698.05 74.9475C1672.26 92.6683 1647.9 109.408 1626.22 122.45C1601.89 137.078 1584.37 144.997 1571.1 147.337C1555.5 150.16 1539.53 150.16 1523.93 147.337C1509.19 144.579 1494.92 139.739 1481.54 132.964C1454.55 119.666 1429.37 99.7271 1405.02 80.4331C1380.67 61.1392 1355.15 40.9444 1328.3 27.9967C1309.53 18.8309 1289.23 13.202 1268.42 11.3918C1248.96 9.84266 1229.38 11.2021 1210.32 15.4254C1172.07 23.4925 1134.17 40.9713 1097.53 57.8586C1081.54 65.2266 1065.02 72.8366 1048.79 79.5189C1003.86 98.0061 953.422 107.525 894.586 108.641C841.584 109.65 787.104 103.693 736.133 97.1187C703.865 92.9507 676.719 86.1608 650.46 79.6399C594.958 65.7644 547.012 53.7847 477.447 75.4046C430.456 90.0062 386.019 103.801 342.685 106.732C321.267 108.304 299.735 106.874 278.713 102.483C256.151 97.7506 233.738 89.5356 210.142 77.3542C160.502 51.7275 111.548 38.6587 60.4559 37.5025C12.053 36.3999 -38.4877 46.0133 -93.8956 66.9475C-71.3882 86.9944 -36.0138 75.2567 -4.79391 64.9039C9.26982 60.2384 22.5537 55.8418 33.6595 54.6048C58.9939 51.9471 84.5524 52.263 109.813 55.546C135.063 58.8347 160.002 64.1813 184.381 71.5324C202.841 76.9911 220.481 84.7356 237.543 92.2112C264.232 103.922 291.835 116.023 322.248 119.102C363.162 123.135 399.061 111.599 437.057 99.3372C448.97 95.4918 461.259 91.512 473.736 88.0969C506.341 79.1021 535.396 76.3458 565.164 79.4113C592.471 82.2079 618.205 89.5221 648 97.9792C661.808 101.905 676.087 105.952 691.831 109.945C789.592 134.725 923.089 130.866 1016.49 100.534C1035.69 94.3086 1057.62 85.2197 1080.83 75.5794C1113.25 62.1342 1149.99 46.9007 1184.71 37.5562C1207.9 31.3176 1228.31 28.1984 1246.33 28.1984Z" fill="white"/>
<path d="M1534.12 199.518C1525.24 199.493 1516.38 198.728 1507.63 197.232C1483.72 193.199 1459.23 184.446 1434.92 171.135C1412.27 158.566 1391.16 143.386 1372.04 125.905C1361.77 116.601 1352.36 104.917 1343.25 93.6365C1334.15 82.3559 1325.08 71.0485 1314.76 61.5158C1295.86 51.4453 1278.08 45.3143 1260.65 42.8404C1245.66 40.9442 1230.48 41.2069 1215.56 43.6202C1182.33 53.0319 1146.72 71.7208 1111.86 90.0332C1073.58 110.201 1037.41 129.132 1005.32 135.855C919.607 153.817 825.719 153.656 747.871 135.465L729.747 131.189C685.122 120.635 642.971 110.658 599.637 105.643C577.968 103.042 556.134 102.071 534.32 102.739C511.95 103.432 489.705 106.35 467.914 111.451C447.262 116.292 425.723 122.893 402.933 129.871C361.979 142.416 319.573 155.417 277.892 159.451C255.412 161.737 235.244 161.172 216.582 157.77C196.145 154.155 176.621 146.543 159.13 135.371C144.166 125.757 132.711 114.382 121.645 103.398C110.58 92.413 100.133 82.0333 87.306 74.5846C72.9061 66.2485 57.4575 62.7393 38.7014 63.546C24.2747 64.1645 7.05131 72.1913 -11.167 80.7022C-40.3163 94.3088 -70.4605 108.372 -91.5561 92.5474L-91.7578 92.3995L-91.5292 92.3189C-37.7482 71.8821 6.62105 58.2352 48.4895 58.0873C69.7453 57.9817 90.8626 61.5104 110.929 68.5208C132.186 75.8753 153.86 87.2231 177.201 103.25C196.208 116.508 217.458 126.215 239.923 131.902C260.878 137.028 282.479 139.008 304.016 137.777C347.135 135.774 391.895 123.377 435.175 111.384C451.309 106.92 467.968 102.295 484.411 98.2482C549.244 82.2753 607.287 92.3189 668.746 102.941C684.665 105.697 701.122 108.534 717.969 111.008C764.965 117.758 812.407 120.927 859.883 120.487C907.804 120.064 955.629 116.105 1002.97 108.641C1035.24 103.546 1071.05 89.9525 1105.7 76.803C1142.48 62.8469 1180.12 48.568 1215.46 43.3513C1236.71 37.3413 1257 35.1093 1275.54 39.1967C1290.9 42.5849 1303.56 50.8268 1314.87 61.2872C1317.47 62.6676 1320.09 64.1287 1322.72 65.6704C1342.31 77.0585 1361.53 91.5525 1380.09 105.562C1421.57 136.85 1464.45 169.212 1518.4 173.985C1590.08 180.331 1648.69 135.895 1705.29 92.9105C1731.62 72.9443 1758.83 52.3058 1786.49 37.7849C1806.52 27.2035 1837.08 13.2608 1868.84 6.86088C1899.51 0.743294 1923.83 3.21722 1941.12 14.2154C1962.8 27.9968 1972.83 55.0083 1970.94 94.4701V95.2768L1970.72 94.5104C1964.5 73.4417 1956.02 56.2587 1945.48 43.4185C1936.36 32.0057 1924.26 23.3405 1910.52 18.3835C1888.75 10.7734 1862.04 12.5482 1831.1 23.6809C1805.55 32.8909 1776.85 48.5277 1745.94 70.1745C1725.08 84.7761 1705.6 102.161 1686.9 118.981C1660.49 142.618 1635.57 164.937 1606.9 180.331C1592.54 188.226 1577.03 193.846 1560.95 196.99C1552.1 198.67 1543.12 199.517 1534.12 199.518V199.518ZM1315.69 62.0133C1325.71 71.4249 1334.66 82.5173 1343.47 93.4617C1352.56 104.742 1361.96 116.413 1372.21 125.73C1391.32 143.198 1412.42 158.365 1435.06 170.92C1459.35 184.217 1483.78 192.997 1507.66 197.004C1525.29 200.116 1543.33 200.03 1560.93 196.748C1576.94 193.597 1592.36 187.986 1606.65 180.116C1635.28 164.735 1660.21 142.47 1686.59 118.806C1705.41 101.986 1724.8 84.6013 1745.66 69.9863C1776.58 48.326 1805.27 32.6758 1830.9 23.4523C1861.89 12.3062 1888.71 10.5314 1910.48 18.1683C1924.32 23.1139 1936.51 31.8207 1945.68 43.3109C1956.13 55.9898 1964.5 72.8905 1970.74 93.6903C1972.45 54.7663 1962.45 28.1044 1941 14.4709C1923.77 3.51302 1899.51 1.02565 1868.92 7.15668C1837.19 13.4759 1806.66 27.4052 1786.64 37.9732C1759.01 52.5613 1731.81 73.1863 1705.49 93.0987C1652.45 133.327 1597.72 174.832 1532.13 174.832C1527.59 174.832 1523 174.644 1518.35 174.227C1464.33 169.441 1421.41 137.065 1379.86 105.751C1361.3 91.7407 1342.1 77.2467 1322.52 65.8721C1320.28 64.5365 1318 63.2502 1315.69 62.0133ZM43.8375 63.1561C60.3617 63.1561 74.3313 66.7595 87.4404 74.356C100.321 81.8181 110.768 92.2113 121.847 103.196C132.926 114.181 144.327 125.529 159.278 135.129C176.734 146.285 196.222 153.883 216.622 157.488C235.325 160.89 255.372 161.522 277.919 159.222C319.599 155.108 361.912 142.147 402.852 129.643C425.709 122.665 447.222 116.063 467.847 111.209C489.656 106.108 511.919 103.19 534.307 102.497C556.116 101.823 577.945 102.785 599.61 105.374C642.958 110.349 685.122 120.325 729.76 130.92C735.784 132.345 741.861 133.784 747.871 135.196C825.692 153.427 919.486 153.575 1005.21 135.613C1037.28 128.89 1073.42 109.919 1111.67 89.818C1145.86 71.8686 1180.77 53.5159 1213.47 43.9563C1178.74 49.3344 1141.84 63.4116 1105.8 77.0988C1071.13 90.2483 1035.3 103.855 1003.01 108.951C955.653 116.374 907.815 120.293 859.883 120.675C812.395 121.137 764.94 117.991 717.928 111.263C701.081 108.816 684.611 105.966 668.692 103.196C607.274 92.5743 549.258 82.5442 484.492 98.4902C468.048 102.524 451.376 107.162 435.255 111.626C391.962 123.633 347.203 136.029 304.043 138.033C282.478 139.266 260.85 137.281 239.869 132.144C217.37 126.457 196.088 116.74 177.053 103.465C153.725 87.4651 132.079 76.1173 110.849 68.7762C90.8104 61.7651 69.7186 58.2407 48.4895 58.3562C6.80929 58.5041 -37.56 72.0972 -91.1931 92.4802C-70.2454 107.969 -40.276 93.9861 -11.288 80.4602C6.97063 71.9359 24.2074 63.8956 38.688 63.2771C40.4358 63.1965 42.1434 63.1561 43.8375 63.1561V63.1561ZM1241.92 41.3479C1248.21 41.3497 1254.51 41.799 1260.74 42.6925C1277.94 45.1261 1295.44 51.1092 1314.04 60.9242C1302.96 50.8268 1290.55 42.8941 1275.6 39.6001C1257.69 35.6471 1238.11 37.6102 1217.63 43.1899C1225.68 42.0213 1233.79 41.4058 1241.92 41.3479V41.3479Z" fill="white"/>
<path d="M1562.02 220.022C1555.13 220.011 1548.24 219.652 1541.38 218.946C1522.08 216.819 1503.06 212.618 1484.66 206.415C1447.01 194.166 1409.81 175.209 1373.77 156.883C1335.44 137.374 1299.22 118.954 1263.77 108.708C1239.67 101.73 1214.02 101.018 1185.18 106.517C1159.44 111.424 1133.48 120.782 1108.38 129.817C1078.57 140.574 1047.77 151.652 1016.22 155.915C988.904 159.599 961.61 155.632 935.217 151.787C923.493 150.079 911.594 148.345 899.654 147.296L886.545 146.893C877.376 146.597 868.152 146.893 858.942 147.377C858.109 147.484 857.262 147.579 856.428 147.7C839.366 150.026 827.911 152.338 819.534 154.019C802.593 157.447 796.019 158.778 775.716 154.449C761.558 155.123 747.368 154.502 733.323 152.594C702.467 148.103 674.326 140.372 647.099 132.896C608.35 122.261 571.08 112.029 529.547 112.029C520.375 112.676 511.246 113.825 502.2 115.471C461.353 122.987 422.174 137.871 384.285 152.258C354.84 163.444 324.4 175.007 293.61 182.913C259.083 191.787 227.648 195.013 197.49 192.903C156.469 189.971 130.264 175.625 100.026 159.007C90.5332 153.804 80.7181 148.426 69.8544 143.048C27.2195 121.979 -8.42383 122.651 -49.6873 123.431C-62.9846 123.686 -76.7122 123.942 -91.4751 123.431H-92.0264L-88.8936 121.912C-41.526 98.8933 17.4314 70.2012 71.2124 89.6296C92.3079 97.2396 107.42 112.486 122.022 127.276C133.007 138.409 144.368 149.918 158.324 158.2C233.201 202.798 312.487 173.595 389.179 145.333C417.898 134.752 445.03 124.762 471.908 118.443C490.801 113.982 510.148 111.726 529.561 111.72C596.626 106.934 669.66 126.402 735.031 143.827L749.404 147.646C760.402 150.55 768.873 152.674 775.757 154.14C790.99 153.562 806.197 151.989 821.134 150.429C833.558 149.084 846.223 147.821 858.929 147.068C872.474 145.642 886.13 145.615 899.681 146.987C952.871 148.506 993.529 148.009 1042.85 137.105C1068.16 131.512 1093.44 121.952 1117.9 112.715C1144.87 102.51 1172.75 91.969 1200.12 87.0884C1213.66 84.5305 1227.46 83.6634 1241.22 84.5069C1255.46 85.4461 1269.44 88.707 1282.63 94.1606C1311.21 105.885 1338.39 120.527 1364.64 134.698C1392.72 149.824 1421.75 165.474 1451.84 177.091C1485.45 190.079 1517.28 196.681 1548.99 197.259H1552.64C1619.97 197.259 1658.32 163.269 1698.87 127.343C1723.81 105.24 1749.6 82.3826 1783.41 66.4365C1807.18 55.2232 1839.63 46.672 1868.12 44.104C1892.65 41.8855 1926.19 42.8401 1946.58 59.9694C1963.64 74.302 1968.09 97.1858 1959.6 127.975L1959.5 128.312L1959.34 127.989C1950.67 110.51 1939.75 96.0026 1926.86 84.7758C1914.67 74.1148 1900.32 66.2287 1884.79 61.6635C1855.02 52.8703 1819.93 55.6131 1783.3 69.5961C1746.68 83.5792 1719.77 114.275 1693.82 143.921C1679.29 160.526 1665.59 176.19 1650.21 189.205C1632.82 203.995 1616.45 212.519 1598.69 216.257C1586.63 218.781 1574.34 220.043 1562.02 220.022V220.022ZM1221.65 102.604C1235.91 102.552 1250.1 104.516 1263.81 108.439C1299.29 118.698 1335.51 137.132 1373.85 156.641C1409.87 174.967 1447.13 193.911 1484.7 206.16C1503.08 212.352 1522.08 216.549 1541.37 218.677C1560.44 220.781 1579.73 219.873 1598.52 215.988C1616.25 212.277 1632.58 203.699 1649.94 189.003C1665.27 176.029 1678.98 160.352 1693.52 143.747C1719.49 114.073 1746.34 83.391 1783.1 69.3541C1819.86 55.3173 1854.94 52.5879 1884.76 61.408C1900.33 65.9888 1914.72 73.8926 1926.94 84.5742C1939.77 95.7472 1950.66 110.214 1959.31 127.599C1967.6 97.0917 1963.21 74.423 1946.3 60.2248C1925.97 43.1493 1892.52 42.1947 1868.03 44.4132C1839.58 46.9678 1807.17 55.519 1783.44 66.7189C1749.65 82.6515 1723.88 105.495 1698.95 127.585C1658.36 163.565 1619.97 197.501 1552.54 197.581H1548.9C1517.14 197.017 1485.34 190.415 1451.65 177.414C1421.55 165.783 1392.49 150.133 1364.43 134.994C1338.16 120.836 1310.98 106.194 1282.41 94.4698C1269.27 89.0538 1255.33 85.8159 1241.14 84.8834C1227.4 84.042 1213.61 84.9045 1200.09 87.4514C1172.75 92.3455 1144.88 102.873 1117.92 112.997C1093.47 122.248 1068.18 131.821 1042.83 137.414C994.739 148.049 954.888 148.775 903.648 147.404C914.256 148.466 924.797 150.012 935.204 151.518C961.583 155.363 988.85 159.33 1016.13 155.646C1047.65 151.384 1078.45 140.291 1108.23 129.562C1133.35 120.513 1159.32 111.169 1185.07 106.248C1197.12 103.88 1209.37 102.66 1221.65 102.604V102.604ZM-27.2472 122.88C5.02141 122.88 35.1925 125.569 69.9754 142.806C80.8392 148.184 90.6542 153.562 100.147 158.778C130.412 175.37 156.617 189.703 197.504 192.634C227.634 194.771 259.056 191.518 293.543 182.657C324.319 174.751 354.759 163.189 384.191 152.016C422.093 137.616 461.272 122.732 502.146 115.202C509.899 113.777 517.765 112.733 525.742 112.07C507.625 112.359 489.592 114.613 471.961 118.792C445.071 125.071 417.979 135.061 389.273 145.683C341.112 163.431 291.916 181.541 243.432 181.555C214.646 181.555 186.115 175.168 158.176 158.523C144.26 150.241 132.886 138.718 121.874 127.599C107.286 112.809 92.2004 97.5488 71.172 89.9522C17.391 70.5776 -41.4588 99.2429 -88.8264 122.221L-90.9776 123.256C-76.4299 123.686 -62.8636 123.431 -49.7545 123.175C-42.0504 123.014 -34.5883 122.88 -27.2472 122.88ZM776.778 154.409C796.22 158.442 802.835 157.098 819.44 153.763C827.575 152.123 838.613 149.891 854.895 147.632C843.534 148.399 832.227 149.582 821.107 150.738C806.56 152.258 791.703 153.804 776.819 154.409H776.778ZM533.245 111.787C573.325 112.379 609.52 122.315 647.139 132.641C674.339 140.116 702.48 147.834 733.323 152.325C747.014 154.218 760.846 154.875 774.654 154.288C767.931 152.836 759.77 150.779 749.323 148.009L734.95 144.19C670.87 127.034 599.274 107.969 533.285 111.787H533.245ZM878.344 146.503C881.033 146.503 883.753 146.543 886.505 146.624L894.182 146.866C884.336 146.133 874.449 146.133 864.603 146.866C869.21 146.624 873.804 146.503 878.384 146.503H878.344Z" fill="white"/>
<path d="M1592.66 239.947C1576.41 239.947 1559.05 237.89 1539.84 235.605L1533.25 234.825C1474.48 227.914 1418.3 208.042 1363.99 188.815C1314.87 171.431 1264.07 153.468 1212.05 145.468C1190.64 142.174 1167.21 142.564 1140.47 146.664C1116.59 150.321 1092.27 156.547 1068.76 162.557C1030.73 172.278 991.405 182.308 952.36 182.066C942.491 182.066 932.878 181.568 923.574 181.138C890.404 179.632 859.036 178.193 825.679 194.462C814.632 199.892 804.011 206.148 793.908 213.178C784.496 219.551 777.639 224.149 768.093 225.427C758.305 226.771 745.895 224.647 725.243 218.247C697.868 209.763 672.309 197.891 647.596 186.395C625.788 176.257 603.227 165.784 580.061 158.012C554.138 149.313 529.883 144.903 505.924 144.567C476.425 144.096 445.42 148.762 411.027 158.805C406.931 159.998 402.83 161.257 398.725 162.584C387.565 167.061 376.46 171.767 365.461 176.432C336.5 188.721 306.638 201.4 276.857 209.36C240.555 223.047 203.325 234.65 164.71 238.132C116.442 242.502 78.3516 216.028 41.5116 190.429C-0.652666 161.131 -40.5044 133.461 -91.4484 154.449L-92.4434 154.866L-91.5829 154.221C-74.8839 141.784 -58.5479 133.932 -41.6069 130.221C-26.2373 126.903 -10.3286 126.981 5.00778 130.449C35.2327 136.903 64.6374 154.543 93.0607 171.592C117.908 186.489 143.601 201.897 170.21 210.247C186.176 215.232 202.828 217.674 219.554 217.48C236.05 217.265 252.467 215.154 268.481 211.188C271.251 210.543 274.02 209.844 276.803 209.091C291.593 203.524 306.168 197.595 320.621 191.733C346.046 181.42 372.211 170.799 398.604 162.315C427.888 150.577 457.561 140.466 486.737 137.051C554.407 129.118 620.719 144.5 684.84 159.37C711.286 165.501 738.621 171.834 765.511 176.365C793.262 181.044 819.857 178.18 848.025 175.141C868.287 172.95 889.234 170.691 910.868 171.444C958.316 173.098 995.788 174.402 1043.16 162.032C1062.49 156.99 1080.26 150.94 1097.45 145.091C1146.85 128.271 1189.51 113.737 1244.65 131.001C1273.98 140.184 1302.97 150.685 1331.02 160.849C1370.88 175.303 1412.11 190.254 1453.6 201.01C1500.01 213.03 1542.34 218.57 1583.12 217.924C1610.01 217.507 1632.18 211.901 1652.91 200.297C1671.33 189.985 1686.15 176.338 1701.81 161.884C1705.25 158.711 1708.71 155.525 1712.22 152.352C1725.26 132.305 1740.32 113.979 1770.72 101.354C1798.15 89.9658 1825.84 86.9541 1851.73 92.3994C1854.9 92.117 1858.1 91.875 1861.3 91.7002C1879.73 90.6515 1895.92 91.4313 1909.42 93.9994C1925.03 96.9842 1936.57 102.335 1943.68 109.892C1955.17 122.1 1955.08 139.928 1943.44 162.893L1943.31 163.108L1943.19 162.893C1924.55 131.431 1899.03 108.937 1869.41 97.8178C1863.64 95.6534 1857.72 93.9319 1851.7 92.6683C1820.77 95.3573 1791.34 102.591 1776.89 108.803C1749.81 120.554 1730.29 136.365 1712.43 152.473C1709.88 156.399 1707.4 160.392 1704.92 164.412C1696.2 178.462 1687.21 192.997 1673.64 207.141C1656.08 225.454 1636.71 235.484 1612.64 238.697C1606.02 239.56 1599.34 239.977 1592.66 239.947V239.947ZM1182.1 142.994C1192.15 142.963 1202.19 143.705 1212.12 145.212C1264.14 153.199 1314.94 171.175 1364.05 188.56C1418.36 207.773 1474.52 227.645 1533.25 234.556L1539.84 235.336C1567.12 238.576 1590.69 241.373 1612.58 238.442C1636.57 235.242 1655.91 225.238 1673.43 206.966C1686.97 192.849 1695.96 178.328 1704.66 164.291C1706.97 160.553 1709.27 156.842 1711.63 153.185C1708.37 156.143 1705.15 159.092 1701.97 162.032C1686.28 176.499 1671.47 190.16 1653.02 200.499C1632.25 212.116 1609.99 217.736 1583.1 218.153C1542.34 218.798 1499.94 213.259 1453.5 201.225C1412 190.469 1370.76 175.518 1330.9 161.064C1302.86 150.9 1273.88 140.385 1244.54 131.216C1189.41 113.979 1146.86 128.527 1097.5 145.306C1080.32 151.155 1062.54 157.205 1043.2 162.261C995.788 174.644 958.302 173.34 910.827 171.673C889.221 170.92 868.273 173.178 848.025 175.37C819.79 178.409 793.222 181.286 765.444 176.593C738.553 172.062 711.26 165.716 684.772 159.585C620.679 144.796 554.354 129.36 486.778 137.266C458.771 140.547 430.308 150.012 402.153 161.158C405.067 160.262 407.993 159.366 410.933 158.469C445.313 148.412 476.371 143.747 505.897 144.217C529.897 144.594 554.165 149.004 580.115 157.663C603.308 165.434 625.828 175.921 647.677 186.059C672.389 197.541 697.935 209.413 725.296 217.897C745.908 224.284 758.291 226.368 768.025 225.064C777.518 223.8 784.308 219.215 793.733 212.869C803.84 205.821 814.47 199.556 825.531 194.126C859.009 177.83 890.364 179.336 923.547 180.775C932.851 181.205 942.478 181.649 952.333 181.703H953.771C992.319 181.703 1031.12 171.78 1068.66 162.18C1092.19 156.17 1116.51 149.958 1140.4 146.301C1154.2 144.141 1168.14 143.036 1182.1 142.994V142.994ZM-55.8185 146.785C-20.7533 146.785 9.79429 168.015 41.6864 190.173C78.486 215.719 116.55 242.179 164.71 237.823C202.438 234.421 238.874 223.275 274.343 209.991C272.407 210.489 270.471 210.973 268.535 211.43C252.501 215.389 236.067 217.5 219.554 217.722C202.809 217.902 186.14 215.452 170.156 210.462C143.507 202.099 117.813 186.691 92.9531 171.767C64.5433 154.732 35.1386 137.105 4.98088 130.665C-10.3189 127.198 -26.1912 127.116 -41.5262 130.423C-58.1311 134.066 -74.1713 141.703 -90.5476 153.75C-79.5282 149.212 -67.7355 146.847 -55.8185 146.785V146.785ZM395.068 163.7C369.885 171.968 344.957 182.079 320.729 191.935C307.109 197.461 293.368 203.04 279.492 208.324C308.359 200.324 337.307 188.049 365.394 176.136C375.209 171.982 385.118 167.733 395.068 163.7ZM1852.61 92.5069C1858.35 93.7584 1864 95.4209 1869.5 97.4817C1899.08 108.601 1924.63 131.095 1943.3 162.463C1954.78 139.727 1954.85 122.127 1943.48 110.026C1936.4 102.51 1924.92 97.1859 1909.37 94.2145C1895.92 91.6465 1879.72 90.8666 1861.31 91.9154C1858.41 92.0901 1855.5 92.3053 1852.61 92.5473V92.5069ZM1826.19 89.9523C1807.15 90.1205 1788.34 94.0548 1770.83 101.529C1740.91 113.939 1725.89 131.888 1713.01 151.572C1730.69 135.68 1750.05 120.123 1776.8 108.547C1791.13 102.322 1820.13 95.2094 1850.74 92.4128C1842.66 90.793 1834.44 89.9823 1826.19 89.9927V89.9523Z" fill="white"/>
<path d="M1616.76 277.043C1608.61 276.987 1600.47 276.435 1592.38 275.389C1570.2 272.7 1545.87 266.973 1524.42 261.944C1507.21 257.91 1490.96 254.105 1478.49 252.465C1469.59 251.282 1460.5 250.126 1451.72 248.996C1401.61 242.596 1349.8 235.981 1300.3 222.791C1281.18 217.696 1262.04 209.521 1243.54 201.602C1215.94 189.81 1187.4 177.602 1158.76 175.693C1133.55 174.012 1105.96 181.568 1079.27 188.869C1060.26 194.072 1040.59 199.451 1022.3 201.279C995.815 203.968 970.001 201.145 945.033 198.469C925.134 196.331 904.549 194.126 883.642 194.637C850.136 195.444 824.2 207.571 799.125 219.296C788.369 224.351 777.734 229.299 766.856 233.238C760.764 236.419 754.249 238.714 747.509 240.055C741.783 241.155 735.942 241.525 730.124 241.158C716.168 241.842 702.201 240.021 688.887 235.78C660.464 227.121 633.923 216.392 608.216 206.025C572.425 191.558 538.61 177.898 502.442 170.651C483.962 166.851 465.119 165.097 446.254 165.421C425.365 165.908 404.617 168.988 384.487 174.59C351.008 183.693 317.395 201.83 284.898 219.376C256.959 234.462 228.065 250.045 198.849 260.25C184.489 265.422 169.613 269.028 154.479 271.006C139.242 272.951 123.799 272.584 108.671 269.917C83.3673 265.453 54.8903 239.181 27.2334 213.783C11.5159 199.343 -4.72596 184.405 -20.2149 173.582C-26.1539 169.354 -32.4525 165.656 -39.0382 162.53C-53.707 160.54 -71.3068 163.296 -94.0831 173.286L-94.6074 173.515L-94.2444 173.084C-85.4781 162.664 -75.811 157.259 -64.6649 156.56C-56.9069 156.063 -48.4096 157.905 -38.971 162.301C-13.425 165.743 2.99162 183.531 20.9948 203C41.1627 224.835 64.0868 249.574 104.436 257.816C133.935 263.853 166.432 261.205 203.756 249.749C236.804 239.598 269.638 223.921 301.49 208.755C330.719 194.812 358.323 181.636 385.2 172.95C436.655 156.318 484.842 154.395 536.822 166.913C582.912 178.019 626.434 198.832 678.548 224.875C698.393 234.785 715.2 240.069 730.124 241.01C742.659 240.18 755.003 237.511 766.762 233.091C775.744 228.479 784.147 222.334 793.276 215.612C814.439 200.015 838.425 182.348 880.307 177.79C904.307 175.182 927.285 177.642 949.51 180.036C977.086 182.98 1005.6 186.046 1036.58 179.552C1048.84 176.984 1061.05 173.609 1072.88 170.342C1100.19 162.799 1128.44 154.987 1158.35 157.004C1222.07 161.293 1287.51 182.241 1350.8 202.503C1401.19 218.637 1453.29 235.309 1504.27 243.524C1512.76 244.869 1522.44 246.899 1532.7 249.023C1574.01 257.601 1625.47 268.277 1655.44 249.225C1672.35 238.469 1679.99 219.309 1687.39 200.822C1692.47 188.049 1697.74 174.846 1705.98 164.52C1713.64 155.001 1726.69 146.543 1743.63 140.103C1761.39 133.655 1779.92 129.542 1798.75 127.868C1818.11 125.891 1837.64 126.221 1856.93 128.85C1876.05 131.619 1892.29 136.917 1903.99 144.123C1925.62 157.569 1931.2 177.293 1920.12 201.118V201.266L1919.99 201.172C1885.74 175.101 1854.82 160.11 1825.45 155.35C1809.19 152.595 1792.52 153.333 1776.57 157.515C1759.71 162.006 1743.25 170.637 1727.64 183.168C1715.23 193.145 1705.19 208.284 1695.48 222.926C1682.5 242.489 1669.09 262.724 1649.62 271.517C1641.05 275.161 1630.27 277.043 1616.76 277.043ZM1151.46 175.182C1153.92 175.182 1156.35 175.249 1158.77 175.41C1187.45 177.32 1216.02 189.541 1243.65 201.346C1262.14 209.252 1281.3 217.481 1300.36 222.523C1349.86 235.699 1401.66 242.314 1451.74 248.727C1460.54 249.843 1469.61 251 1478.53 252.183C1491 253.837 1507.26 257.642 1524.48 261.675C1545.93 266.704 1570.2 272.431 1592.41 275.12C1617.85 278.24 1636.45 276.935 1649.29 271.087C1668.68 262.32 1682.09 242.126 1695.01 222.59C1704.73 207.934 1714.79 192.768 1727.28 182.778C1742.91 170.221 1759.41 161.562 1776.31 157.071C1792.3 152.878 1809.01 152.135 1825.31 154.893C1854.68 159.653 1885.59 174.631 1919.83 200.607C1930.76 176.97 1925.2 157.448 1903.69 144.137C1892.1 136.93 1875.89 131.673 1856.81 128.903C1837.55 126.274 1818.04 125.945 1798.7 127.922C1779.91 129.597 1761.41 133.7 1743.68 140.13C1726.71 146.57 1713.71 154.987 1706.03 164.466C1697.81 174.698 1692.59 187.888 1687.47 200.634C1680.06 219.215 1672.41 238.415 1655.43 249.211C1625.34 268.317 1573.85 257.628 1532.47 249.037C1522.22 246.912 1512.54 244.909 1504.07 243.537C1453.06 235.336 1400.96 218.65 1350.55 202.516C1287.28 182.267 1221.86 161.32 1158.17 157.031C1128.3 155.014 1100.08 162.812 1072.8 170.355C1060.98 173.622 1048.76 176.997 1036.5 179.565C1005.48 186.073 976.938 183.007 949.349 180.049C927.137 177.669 904.173 175.209 880.2 177.817C838.398 182.362 814.439 200.015 793.303 215.585C784.752 221.877 776.86 227.686 768.524 232.203C778.782 228.385 788.772 223.719 798.937 218.96C824.052 207.222 850.029 195.081 883.642 194.274C904.563 193.763 925.147 195.968 945.06 198.106C970.014 200.795 995.815 203.484 1022.28 200.916C1040.53 199.087 1060.19 193.709 1079.2 188.52C1103.35 181.985 1128.25 175.182 1151.46 175.182ZM-38.1508 162.651C-31.8344 165.727 -25.7855 169.325 -20.067 173.407C-4.55117 184.231 11.6907 199.182 27.4082 213.649C54.9844 238.993 83.4883 265.225 108.725 269.688C123.825 272.327 139.236 272.671 154.439 270.71C169.573 268.735 184.449 265.129 198.808 259.954C227.984 249.763 256.865 234.18 284.858 219.094C301.288 210.22 318.014 201.198 334.847 193.266C323.97 198.214 312.891 203.498 301.584 208.903C269.772 224.069 236.885 239.827 203.81 249.911C166.432 261.379 133.895 264.028 104.315 257.978C63.8717 249.749 40.961 224.983 20.7393 203.121C2.99161 183.948 -13.2368 166.389 -38.1508 162.651V162.651ZM451.256 165.165C468.468 165.21 485.633 166.971 502.496 170.422C538.69 177.683 572.519 191.343 608.323 205.81C633.977 216.136 660.518 226.892 688.914 235.578C701.48 239.527 714.618 241.345 727.784 240.956C713.385 239.692 697.237 234.462 678.36 225.023C626.259 198.98 582.751 178.18 536.687 167.088C484.762 154.57 436.628 156.493 385.213 173.111C376.312 175.989 367.344 179.363 358.323 183.074C366.88 179.689 375.615 176.767 384.487 174.321C404.647 168.737 425.421 165.675 446.335 165.205C447.908 165.179 449.562 165.165 451.229 165.165H451.256ZM732.571 240.996C737.557 241.142 742.543 240.741 747.441 239.8C753.439 238.61 759.256 236.644 764.745 233.951C754.359 237.675 743.536 240.043 732.544 240.996H732.571ZM-62.2716 156.695C-63.0962 156.695 -63.903 156.722 -64.6918 156.775C-75.5555 157.461 -85.0344 162.691 -93.6528 172.762C-71.616 163.189 -54.312 160.392 -39.8718 162.127C-48.06 158.496 -55.4683 156.695 -62.2985 156.695H-62.2716Z" fill="white"/>
<path d="M131.38 319.758C111.965 319.758 93.0206 314.622 73.9283 304.229C51.6227 292.128 31.8582 274.475 12.739 257.426C-22.0304 226.502 -54.8771 197.178 -96.8263 206.859L-97.1221 206.926L-96.9742 206.657C-91.502 196.95 -74.1173 197.918 -43.7848 209.655C-17.1901 219.941 15.2936 236.774 46.7152 253.043C87.2391 274.031 125.518 293.863 141.773 294.28C161.605 294.804 182.458 289.897 207.399 278.831C229.423 269.07 251.11 256.109 274.074 242.394C312.044 219.699 351.317 196.237 391.64 188.882C437.353 180.546 479.921 182.496 525.5 195.013C566.589 206.294 606.468 225.211 648.699 245.218L660.612 250.865C689.277 264.404 711.959 268.855 732.006 264.861C750.372 261.204 765.095 250.999 782.13 239.181C801.168 225.991 822.734 211.054 854.949 201.44C886.035 192.163 917.241 196.412 950.276 200.902C974.289 204.156 999.123 207.531 1023.9 205.218C1044.29 203.323 1064.57 198.119 1084.19 193.118C1101.58 188.654 1119.55 184.056 1137.47 181.77C1176.98 176.755 1201.31 185.642 1232.13 196.882C1244.69 201.481 1257.67 206.213 1273.26 210.637C1317.82 223.302 1365.71 229.581 1412.01 235.645C1428.68 237.837 1445.92 240.095 1462.54 242.61C1478.27 244.976 1496.92 249.736 1516.67 254.778C1556.48 264.929 1601.6 276.438 1632.58 270.145C1644.96 267.631 1656.45 262.078 1667.67 253.043C1677.72 244.976 1686.73 234.973 1695.44 225.265C1704.57 215.114 1713.99 204.613 1724.86 196.022C1743.56 181.404 1765.21 171.014 1788.32 165.568C1812.52 159.989 1835.26 160.809 1854.29 167.948C1882.13 178.368 1900.17 201.723 1906.47 235.484V235.605H1906.34C1882.29 240.445 1859.11 231.369 1836.69 222.59C1816.59 214.724 1797.61 207.289 1778.07 209.144C1749.92 211.726 1736.16 224.324 1720.26 238.912C1711.64 247.173 1702.38 254.739 1692.56 261.54C1664.2 280.592 1626.93 289.13 1578.6 287.624C1536.3 286.28 1492.37 277.796 1449.91 269.567C1424.75 264.7 1400.99 260.156 1379.45 257.467C1343.29 252.976 1307.38 244.599 1272.65 236.505C1239.6 228.801 1205.43 220.828 1171.81 216.472C1134.26 211.605 1101.12 211.833 1070.5 217.171C1035.79 223.235 999.149 218.623 963.721 214.159C937.705 210.892 910.801 207.504 885.739 208.647C873.338 209.084 861.03 210.956 849.06 214.227C836.908 217.588 825.358 222.833 814.829 229.769C803.266 237.393 793.088 244.922 783.259 252.196C762.621 267.47 744.792 280.646 723.603 287.382C700.557 294.696 675.2 293.54 643.926 283.725C611.94 273.695 584.35 257.453 557.675 241.749C510.764 214.065 466.503 187.982 403.31 196.95C352.783 204.129 311.56 232.055 271.694 259.067C252.925 271.772 233.55 284.895 213.732 295.463C191.453 307.322 170.707 314.73 150.432 318.132C144.137 319.199 137.765 319.743 131.38 319.758ZM-80.571 204.707C-46.0167 204.707 -17.2842 230.321 12.9138 257.225C32.0195 274.26 51.784 291.873 74.0628 304.001C99.2592 317.715 124.2 322.246 150.324 317.89C170.613 314.501 191.292 307.133 213.517 295.248C233.402 284.666 252.777 271.544 271.506 258.851C311.398 231.826 352.648 203.874 403.27 196.694C466.462 187.699 510.832 213.796 557.809 241.44C584.471 257.13 612.047 273.359 644.007 283.389C711.811 304.632 741.713 282.515 783.098 251.9C792.94 244.626 803.104 237.11 814.667 229.474C825.225 222.518 836.807 217.26 848.993 213.891C860.979 210.608 873.306 208.731 885.725 208.297C910.868 207.154 937.785 210.543 963.802 213.823C999.217 218.274 1035.83 222.885 1070.52 216.835C1101.16 211.457 1134.31 211.255 1171.91 216.122C1205.52 220.479 1239.67 228.452 1272.75 236.156C1307.48 244.223 1343.39 252.626 1379.53 257.117C1401.04 259.806 1424.84 264.391 1450.01 269.218C1492.46 277.433 1536.37 285.944 1578.65 287.261C1626.92 288.767 1664.15 280.243 1692.45 261.231C1703.65 253.702 1712.03 246.038 1720.12 238.616C1736.08 224.001 1749.88 211.376 1778.11 208.781C1797.7 206.98 1816.73 214.415 1836.86 222.307C1859.2 231.047 1882.29 240.095 1906.22 235.336C1899.91 201.723 1881.94 178.503 1854.24 168.109C1835.26 160.997 1812.56 160.177 1788.43 165.757C1765.32 171.198 1743.67 181.593 1724.98 196.223C1714.13 204.788 1704.7 215.289 1695.59 225.44C1686.86 235.147 1677.85 245.191 1667.78 253.245C1656.51 262.267 1645.01 267.873 1632.58 270.401C1601.54 276.693 1556.39 265.184 1516.55 255.02C1496.81 249.991 1478.16 245.231 1462.45 242.919C1445.83 240.405 1428.59 238.146 1411.92 235.954C1365.6 229.877 1317.71 223.598 1273.12 210.946C1257.53 206.509 1244.54 201.763 1231.98 197.178C1201.2 185.951 1176.86 177.01 1137.46 182.079C1119.55 184.365 1101.59 188.963 1084.2 193.413C1064.57 198.442 1044.27 203.645 1023.88 205.514C999.069 207.827 974.209 204.452 950.182 201.185C917.174 196.708 885.994 192.472 854.976 201.723C822.802 211.323 801.195 226.26 782.237 239.436C765.162 251.268 750.426 261.487 732.006 265.157C711.905 269.191 689.169 264.7 660.45 251.134L648.524 245.487C606.306 225.48 566.441 206.576 525.379 195.296C479.84 182.792 437.34 180.842 391.626 189.178C351.358 196.519 312.111 219.968 274.155 242.65C251.19 256.378 229.49 269.339 207.453 279.113C182.472 290.179 161.578 295.086 141.706 294.575C125.397 294.145 87.0912 274.313 46.5269 253.312C-14.7296 221.581 -84.1205 185.629 -96.638 206.549C-91.3677 205.339 -85.9786 204.721 -80.571 204.707V204.707Z" fill="white"/>
<path d="M129.619 350.898C107.825 350.898 85.8146 344.726 62.4737 332.074C40.1949 319.974 18.7901 303.315 -1.90213 287.167C-32.5976 263.194 -64.3553 238.428 -99.5415 228.371L-99.918 228.264L-99.5549 228.116C-56.2478 210.785 -19.9188 241.561 18.5346 274.166C36.9546 289.816 56.0469 305.991 76.5912 317.365C99.7708 330.206 121.74 335.019 143.817 332.074C163.192 329.48 182.809 322.38 203.729 310.374C222.459 299.618 240.65 285.971 258.25 272.727C297.577 243.148 338.236 212.627 390.511 209.185C415.196 207.558 440.379 211.363 467.512 220.802C491.713 229.232 515.31 241.306 538.113 252.976C570.018 269.312 602.999 286.199 638.804 293.796C711.839 309.298 737.936 285.729 770.984 255.786C786.782 241.494 804.678 225.292 830.143 211.618C878.089 185.831 938.633 202.207 997.187 218.139C1025.42 225.817 1052.18 233.064 1077.13 235.618C1122.28 240.27 1168.21 243.524 1212.63 246.684C1284.31 251.766 1358.43 257.037 1431.07 268.263C1453.65 271.759 1475.95 276.882 1497.5 281.83C1534.93 290.488 1570.36 298.623 1605.32 298.152C1622.84 298.099 1640.25 295.313 1656.92 289.897C1675.18 283.763 1692.21 274.42 1707.19 262.307C1731.24 243.242 1751.29 228.452 1770.93 218.207C1793.07 206.657 1812.61 202.314 1830.83 204.923C1857.91 208.822 1883.54 228.344 1909.19 264.633L1909.33 264.848H1909.08C1897.09 265.144 1885.49 264.915 1874.25 264.7C1838.79 264.001 1805.3 263.356 1769.47 279.423C1753.52 286.576 1740.01 295.84 1726.94 304.807C1701.19 322.461 1676.87 339.133 1639.36 335.153C1611.49 332.182 1582.34 320.27 1554.14 308.747C1532.48 299.9 1510.1 290.744 1488.57 285.782C1436.13 273.682 1378.8 266.408 1308.18 262.818C1272.09 260.976 1234.85 261.635 1198.83 262.28C1142.61 263.275 1084.54 264.31 1028.78 255.961C1001.73 251.927 978.189 244.506 955.426 237.353C927.837 228.694 901.793 220.519 875.575 221.003C846.547 221.555 819.965 232.607 791.919 255.813C783.314 262.939 775.529 270.119 768 277.07C753.411 290.515 739.617 303.302 723.805 311.463C706.326 320.512 687.879 323.147 665.923 319.745C622.898 313.09 583.907 295.221 546.261 277.93C519.558 265.695 491.969 253.043 463.357 244.6C431.29 235.188 401.227 232.042 371.445 235.188C325.1 240.001 287.816 267.779 251.783 294.629C233.726 308.075 215.064 321.964 195.891 332.343C174.378 343.96 154.318 350.01 134.419 350.817C132.725 350.857 131.179 350.898 129.619 350.898ZM-99.1247 228.237C-64.0057 238.388 -32.3422 263.1 -1.72735 286.993C18.9514 303.127 40.3428 319.826 62.6081 331.886C87.5625 345.331 111.011 351.503 134.271 350.562C154.13 349.755 174.204 343.718 195.622 332.128C214.795 321.748 233.443 307.86 251.487 294.482C287.574 267.591 324.898 239.813 371.311 234.986C401.119 231.88 431.223 234.986 463.317 244.398C491.955 252.842 519.558 265.507 546.261 277.742C583.907 295.019 622.898 312.888 665.923 319.53C687.825 322.918 706.165 320.296 723.63 311.288C739.428 303.127 753.21 290.408 767.784 276.935C775.314 269.971 783.099 262.778 791.703 255.652C819.804 232.418 846.426 221.339 875.521 220.788C901.807 220.291 927.863 228.492 955.466 237.151C978.216 244.304 1001.76 251.699 1028.78 255.746C1084.47 264.095 1142.58 263.06 1198.77 262.065C1234.8 261.42 1272.06 260.721 1308.15 262.603C1378.79 266.193 1436.12 273.493 1488.58 285.581C1510.1 290.542 1532.54 299.698 1554.2 308.545C1582.43 320.068 1611.51 331.98 1639.35 334.938C1676.76 338.972 1701.05 322.259 1726.74 304.633C1739.81 295.665 1753.33 286.401 1769.31 279.235C1805.19 263.1 1838.71 263.786 1874.18 264.445C1885.33 264.66 1896.85 264.889 1908.73 264.606C1883.19 228.506 1857.64 209.077 1830.75 205.205C1812.64 202.597 1793.11 206.94 1771.01 218.462C1751.4 228.694 1731.36 243.484 1707.32 262.536C1692.31 274.668 1675.26 284.024 1656.96 290.166C1640.27 295.593 1622.84 298.383 1605.29 298.434C1570.33 298.878 1534.92 290.73 1497.38 282.112C1475.86 277.151 1453.55 272.041 1430.96 268.546C1358.35 257.319 1284.22 252.048 1212.54 246.966C1168.17 243.806 1122.2 240.553 1077.04 235.901C1052.06 233.333 1025.34 226.086 997.039 218.422C938.539 202.543 878.049 186.153 830.197 211.874C804.772 225.548 786.877 241.682 771.105 255.988C738.003 285.944 711.852 309.594 638.683 294.078C602.851 286.468 569.843 269.567 537.924 253.232C515.135 241.561 491.552 229.487 467.364 221.07C440.258 211.659 415.102 207.854 390.457 209.467C338.276 212.909 297.685 243.443 258.344 272.956C240.744 286.186 222.539 299.846 203.797 310.602C182.809 322.636 163.192 329.748 143.817 332.343C121.754 335.288 99.7305 330.474 76.4836 317.554C55.899 306.219 36.7933 290.085 18.3195 274.381C-19.9591 241.924 -56.1268 211.269 -99.1247 228.237Z" fill="white"/>
<path d="M155.393 388.679C135.091 388.679 112.597 382.48 86.8227 369.855C61.6128 357.445 35.8114 340.168 10.8705 323.469C-26.7762 298.232 -65.7674 272.149 -102.312 263.382L-103.186 263.167H-102.298C-79.858 261.823 -56.7994 266.569 -31.8047 277.863C-9.53941 287.92 12.1612 302.064 33.1358 315.752C55.186 330.138 77.9891 345.022 101.411 355.092C127.656 366.373 151.965 370.312 175.723 367.112C203.218 363.428 223.238 348.961 241.819 331.052C244.177 327.915 246.539 324.742 248.905 321.533C272.609 289.426 297.093 256.337 338.652 248.404C347.886 246.659 357.277 245.879 366.672 246.078C392.03 242.771 417.172 244.734 444.964 251.94C472.755 259.147 498.476 270.481 525.891 282.461C541.097 289.117 556.815 296.001 572.774 302.051C618.488 319.382 653.19 324.262 685.365 317.863C714.285 312.108 742.063 297.439 781.216 267.255C797.969 254.347 814.829 245.299 832.765 239.611C844.836 235.792 857.34 233.511 869.981 232.821C873.864 232.452 877.769 232.357 881.665 232.539H883.87C918.008 233.252 952.333 243.228 988.743 253.796C1003.92 258.206 1019.67 262.777 1035.63 266.73C1098.25 282.206 1163.8 281.09 1227.18 280.014C1235.69 279.88 1244.26 279.732 1252.87 279.624C1278.96 274.475 1304.75 270.683 1328.75 270.764C1358.7 270.885 1388.59 275.967 1420.17 286.333C1439.15 292.761 1457.76 300.193 1475.95 308.599C1552.46 328.888 1631.33 349.338 1695.45 327.825C1717.97 320.269 1740 305.358 1761.33 290.932C1787.74 273.05 1812.69 256.149 1838.52 252.048C1851.8 249.779 1865.46 251.657 1877.64 257.426C1891.55 263.907 1904.69 275.268 1917.8 292.155L1917.96 292.357H1917.69C1870.86 293.621 1828.83 312.673 1788.18 331.093C1763.67 342.198 1738.33 353.694 1712.5 360.928C1683.55 368.995 1656.88 370.904 1630.93 366.615C1583.09 358.709 1541.37 339.267 1501.03 320.471C1492.75 316.612 1484.38 312.713 1475.9 308.895L1473.22 308.155C1431.54 297.09 1392.07 286.643 1356.11 283.08C1322.09 279.718 1287.27 279.517 1253.05 279.934C1237.96 282.905 1222.78 286.333 1207.79 289.708C1152.53 302.172 1095.4 315.066 1046.45 305.264C1013.95 298.77 987.533 282.3 962.001 266.394C938.404 251.685 916.125 237.81 891.709 233.857C888.447 233.321 885.156 232.975 881.853 232.821C877.901 232.821 874.028 232.821 870.21 233.104C864.392 233.665 858.645 234.805 853.054 236.505C838.64 240.835 824.079 248.794 808.537 260.855C804.342 264.108 800.254 267.308 796.301 270.414C766.359 293.836 742.709 312.323 714.958 323.483C685.042 335.503 653.204 337.64 611.712 330.407C576.297 324.222 539.47 306.905 503.867 290.152C476.802 277.406 448.809 264.243 421.26 255.799C401.657 249.789 383.613 246.657 366.887 246.388C363.687 246.8 360.487 247.297 357.287 247.88C314.074 255.719 287.695 283.685 262.189 310.737C255.547 317.782 249.013 324.706 242.277 331.187C232.448 344.296 222.687 356.477 211.487 366.427C195.769 380.369 179.944 387.415 161.74 388.558C159.481 388.611 157.451 388.679 155.393 388.679ZM-101.33 263.275C-65.0279 272.256 -26.3191 298.152 11.0721 323.187C36.0131 339.832 61.8011 357.15 86.984 369.559C115.219 383.489 139.636 389.593 161.471 388.221C179.662 387.079 195.433 380.06 211.111 366.158C221.867 356.558 231.386 344.874 240.878 332.276C222.593 349.687 202.801 363.644 175.803 367.233C152.005 370.433 127.656 366.494 101.357 355.133C77.9354 345.21 55.0784 330.272 33.0417 315.873C12.0537 302.185 -9.62008 288.054 -31.8585 277.984C-56.5171 266.878 -79.2261 262.051 -101.33 263.275V263.275ZM1477.33 309.271C1485.3 312.874 1493.2 316.545 1500.99 320.189C1541.33 339.012 1583.01 358.4 1630.82 366.306C1656.73 370.595 1683.38 368.726 1712.27 360.632C1738.09 353.398 1763.36 341.916 1787.93 330.81C1828.52 312.404 1870.5 293.392 1917.27 292.048C1904.24 275.322 1891.19 264.055 1877.38 257.628C1865.24 251.883 1851.62 250.028 1838.39 252.317C1812.63 256.351 1787.7 273.278 1761.31 291.147C1740 305.587 1717.96 320.511 1695.43 328.081C1631.67 349.472 1553.39 329.425 1477.33 309.271V309.271ZM368.487 246.078C384.783 246.562 402.208 249.695 421.139 255.49C448.715 263.934 476.708 277.11 503.773 289.843C539.376 306.595 576.176 323.913 611.564 330.084C652.989 337.318 684.787 335.18 714.662 323.173C742.373 312.041 766.009 293.594 795.925 270.145C799.958 267.053 803.992 263.853 808.174 260.599C823.743 248.499 838.331 240.525 852.771 236.196C856.736 234.995 860.779 234.07 864.872 233.426C854.012 234.382 843.29 236.528 832.899 239.826C814.99 245.5 798.157 254.535 781.444 267.429C742.238 297.641 714.433 312.323 685.472 318.078C653.19 324.504 618.434 319.664 572.72 302.279C556.774 296.216 541.043 289.345 525.823 282.69C498.422 270.697 472.54 259.389 444.937 252.169C417.791 245.097 393.213 243.107 368.487 246.092V246.078ZM364.037 246.28C355.56 246.266 347.101 247.054 338.773 248.633C297.295 256.593 272.891 289.628 249.241 321.573C247.198 324.33 245.208 327.059 243.164 329.762C249.47 323.617 255.614 317.096 261.853 310.481C287.399 283.402 313.805 255.356 357.099 247.557C359.707 247.073 362.311 246.652 364.911 246.293L364.037 246.28ZM886.667 232.835C888.294 233.01 889.921 233.225 891.547 233.494C916.018 237.447 938.323 251.349 961.933 266.071C987.479 281.977 1013.85 298.421 1046.3 304.915C1095.2 314.689 1152.3 301.809 1207.52 289.359C1222.05 286.078 1236.75 282.77 1251.37 279.853C1243.25 279.96 1235.18 280.086 1227.17 280.229C1163.77 281.305 1098.21 282.421 1035.55 266.932C1019.55 262.979 1003.84 258.421 988.649 253.998C953.221 243.779 919.85 234.072 886.667 232.889V232.835ZM1276.58 279.409C1303.08 279.409 1329.75 280.122 1355.91 282.717C1391.89 286.28 1431.31 296.74 1473.05 307.805L1474.22 308.115C1456.52 299.984 1438.41 292.781 1419.96 286.535C1388.46 276.182 1358.59 271.1 1328.67 270.979H1327.83C1304.53 270.979 1279.56 274.609 1254.27 279.557C1261.69 279.503 1269.11 279.472 1276.55 279.463L1276.58 279.409Z" fill="white"/>
<path d="M177.189 412.208C170.047 412.166 162.924 411.446 155.918 410.057C142.151 407.201 128.753 402.784 115.986 396.894C88.9342 384.874 60.632 366.951 33.2709 349.634C10.9787 335.516 -12.0665 320.928 -34.3453 309.567C-59.3131 296.834 -80.6507 289.628 -99.5547 287.53V287.261C-76.6037 287.261 -53.061 291.752 -27.5689 300.989C-4.48337 309.365 18.145 320.901 39.1465 332.115C49.0825 337.425 60.8605 345.721 73.3377 354.514C102.917 375.408 136.53 399.072 163.421 396.41C198.042 392.981 216.086 365.257 235.178 335.906C246.149 319.073 257.484 301.648 272.475 288.122C288.721 273.104 309.773 264.345 331.876 263.409C357.422 261.93 384.824 264.687 415.64 271.813C443.109 278.159 470.698 287.328 497.387 296.189C524.076 305.049 551.76 314.259 579.309 320.619C610.233 327.758 637.688 330.515 663.355 329.049C704.874 326.669 738.541 304.229 771.092 282.528C788.477 270.939 804.893 259.994 822.44 251.86C842.338 242.65 860.086 238.751 878.439 239.584C895.246 240.351 912.052 245.5 929.934 255.315C945.827 264.082 961.047 275.671 975.769 286.885C990.989 298.475 1006.69 310.468 1023.27 319.355C1041.81 329.318 1059.41 334.225 1077.05 334.373H1077.71C1101.98 334.373 1127.01 323.832 1151.23 313.627C1165.84 307.469 1180.97 301.096 1195.34 297.399C1256.1 281.762 1312.41 278.414 1362.71 287.463C1405.04 295.073 1444.36 315.698 1482.37 335.624C1506.91 348.477 1532.27 361.775 1558.04 371.321C1586.91 382.077 1613.33 386.837 1638.81 386.003C1682.22 384.659 1720.82 363.98 1758.07 344.027C1785.75 329.237 1811.92 315.214 1839.99 308.384C1854.13 304.782 1868.76 303.515 1883.31 304.632C1899.5 306.058 1915.28 310.447 1929.88 317.58L1930.76 317.997L1929.8 317.822C1904.92 313.547 1879.49 315.805 1852.08 324.733C1827.58 332.72 1803.67 345.21 1780.55 357.284C1748.18 374.185 1714.67 391.677 1678.36 397.714C1659 400.985 1639.29 401.654 1619.76 399.704C1601.46 397.824 1583.43 393.956 1565.98 388.168C1531.39 376.968 1498.24 359.355 1466.17 342.319C1432.56 324.437 1397.67 305.95 1360.41 294.266C1301.84 275.927 1254.6 301.54 1208.9 326.32C1190.29 336.417 1171.05 346.85 1151.59 353.855C1129.84 361.707 1109.91 364.423 1090.7 362.151C1073.81 360.148 1056.29 353.533 1037.11 341.983C1019.99 331.63 1003.08 318.279 986.727 305.385C964.636 287.907 941.78 269.917 917.578 258.461C905.714 252.643 893.011 248.723 879.931 246.845C866.122 244.969 852.077 245.884 838.628 249.534C804.719 258.515 780.087 279.826 756.262 300.451C740.746 313.896 724.706 327.758 706.205 338.098C686.002 349.639 663.212 355.892 639.947 356.276C592.082 357.338 549.353 336.565 508.036 316.478C488.231 306.851 467.767 296.888 447.237 289.668C424.272 281.601 403.513 277.782 383.775 278.065C328.394 278.858 300.159 314.434 272.852 348.827C250.358 377.17 229.114 403.952 194.17 410.675C188.572 411.729 182.885 412.243 177.189 412.208V412.208ZM-97.1883 287.544C-78.8356 289.964 -58.1971 297.103 -34.2108 309.325C-11.932 320.686 11.1266 335.288 33.4188 349.405C60.7664 366.723 89.0687 384.632 116.094 396.652C128.827 402.517 142.189 406.911 155.918 409.747C168.473 412.394 181.42 412.59 194.049 410.325C228.886 403.603 250.102 376.914 272.569 348.625C299.904 314.179 328.179 278.549 383.681 277.755C403.445 277.473 424.245 281.265 447.25 289.372C467.781 296.606 488.258 306.555 508.063 316.195C549.367 336.269 592.055 357.029 639.826 355.966C663.043 355.592 685.791 349.368 705.963 337.869C724.424 327.476 740.464 313.6 755.966 300.222C779.805 279.597 804.463 258.26 838.439 249.251C851.921 245.601 865.997 244.687 879.837 246.562C892.967 248.444 905.72 252.373 917.632 258.206C941.833 269.675 964.69 287.705 986.835 305.157C1003.17 318.051 1020.07 331.388 1037.17 341.741C1056.33 353.318 1073.83 359.919 1090.66 361.909C1109.83 364.168 1129.72 361.465 1151.44 353.627C1170.86 346.622 1190.1 336.148 1208.69 326.118C1254.41 301.311 1301.75 275.658 1360.42 294.038C1397.71 305.721 1432.54 324.222 1466.22 342.118C1498.28 359.139 1531.42 376.739 1565.99 387.939C1583.41 393.719 1601.41 397.583 1619.66 399.462C1639.17 401.412 1658.86 400.743 1678.19 397.472C1714.49 391.435 1747.98 373.97 1780.37 357.069C1803.51 344.968 1827.43 332.491 1851.94 324.505C1879.05 315.671 1904.22 313.358 1928.82 317.432C1914.5 310.55 1899.06 306.313 1883.23 304.928C1868.71 303.814 1854.1 305.076 1839.99 308.666C1811.96 315.496 1785.82 329.479 1758.13 344.296C1720.82 364.249 1682.24 384.901 1638.77 386.299C1613.22 387.119 1586.8 382.265 1557.89 371.603C1532.11 362.044 1506.8 348.746 1482.2 335.879C1444.17 315.967 1404.86 295.369 1362.53 287.759C1312.28 278.71 1256.01 282.058 1195.29 297.681C1180.93 301.379 1165.83 307.752 1151.22 313.91C1126.76 324.209 1101.47 334.871 1076.93 334.669C1059.32 334.454 1041.69 329.573 1023.14 319.664C1006.59 310.763 990.868 298.757 975.594 287.154C960.885 275.954 945.665 264.377 929.786 255.625C911.985 245.823 895.178 240.673 878.426 239.92C860.153 239.087 842.392 242.986 822.547 252.169C805.068 260.236 788.598 271.234 771.227 282.811C738.635 304.538 704.955 327.005 663.355 329.385C637.675 330.851 610.153 328.041 579.242 320.955C551.679 314.582 524.022 305.399 497.226 296.512C470.43 287.624 442.961 278.481 415.506 272.135C384.73 265.023 357.355 262.266 331.823 263.745C309.782 264.683 288.79 273.412 272.583 288.377C257.618 301.89 246.297 319.301 235.339 336.121C216.207 365.526 198.136 393.304 163.381 396.746C161.965 396.892 160.542 396.964 159.118 396.961C132.967 396.961 101.304 374.628 73.1629 354.81C60.6992 346.017 48.9615 337.721 39.012 332.424C18.0105 321.21 -4.60438 309.674 -27.663 301.311C-52.2409 292.33 -75.0171 287.839 -97.1883 287.544Z" fill="white"/>
<path d="M171.581 432.336C150.203 432.336 125.115 426.568 95.7771 414.978C54.8363 398.844 12.1477 373.889 -25.5125 351.933C-51.0584 337.049 -75.1792 322.972 -94.2177 314.408L-95.4277 313.87L-94.0832 314.152C-65.2835 320.606 -27.704 341.688 12.1342 364.007C48.9742 384.672 87.0646 406.05 122.452 418.433C141.612 425.156 158.015 428.544 172.617 428.84C188.912 429.19 202.989 425.479 214.485 417.828C230.095 407.435 240.327 390.212 250.223 373.553C257.644 361.063 265.322 348.142 275.177 338.354C295.197 318.441 317.046 306.152 341.986 300.707C363.969 295.961 388.467 296.404 419.055 302.051C441.024 306.085 462.644 312.176 483.807 318.643C504.203 322.609 524.304 328.054 544.042 333.298C586.636 344.727 630.669 356.545 676.343 353.654C685.984 353.048 695.551 351.572 704.927 349.244C734.641 339.725 758.063 319.53 780.826 299.9C805.592 278.522 828.987 258.341 858.633 253.205C896.482 246.63 932.757 273.292 971.157 301.5C998.182 321.359 1025.87 341.701 1055.62 351.705C1079.63 357.021 1104.4 357.892 1128.72 354.273C1149.27 351.382 1170.08 346.985 1192.12 342.32C1206.19 339.348 1220.44 336.337 1234.71 333.728C1256.6 328.74 1278.8 324.317 1300.69 322.165C1334.14 318.912 1363.44 321.574 1390.23 330.233C1421.91 340.545 1451.39 355.254 1479.92 369.479C1510.49 384.726 1539.37 399.126 1570.6 408.47C1586.36 413.3 1602.58 416.455 1619 417.882C1636.62 419.363 1654.36 418.581 1671.78 415.556C1700.01 410.743 1732.48 393.062 1766.85 374.346C1797.68 357.553 1829.55 340.196 1859.89 331.564C1876.29 326.898 1890.7 325.177 1903.97 326.307C1918.41 327.389 1932.26 332.515 1943.92 341.096L1944.38 341.419L1943.81 341.338C1918.51 337.305 1892.17 339.832 1863.3 349.056C1837.53 357.284 1812.08 370.004 1787.44 382.306C1753.12 399.462 1717.62 417.196 1680.1 423.516C1635.88 430.978 1590.15 424.86 1545.94 418.944C1537.58 417.828 1528.93 416.672 1520.5 415.637C1470.08 409.452 1459.25 400.363 1430.27 376.094C1424.76 371.483 1418.51 366.239 1411.22 360.377C1396.36 348.357 1379.3 339.351 1360.99 333.863C1344.48 328.861 1326.65 326.387 1306.49 326.32H1305.58C1282.4 326.32 1258.52 329.52 1234.71 333.876C1226.74 335.691 1218.8 337.574 1210.94 339.443C1172.26 348.639 1132.27 358.158 1092.5 358.199H1092.37C1079.83 358.133 1067.39 356.017 1055.54 351.933C1053.26 351.431 1050.99 350.893 1048.71 350.32C1024.94 344.283 1003.21 334.71 980.219 324.586C956.999 314.367 932.999 303.786 904.777 295.92C881.952 289.333 857.743 289.23 834.862 295.625C813.538 301.272 794.042 311.046 773.391 321.399C751.797 332.236 729.653 343.342 704.995 349.473C699.077 351.376 693.016 352.802 686.87 353.735C658.528 358.064 628.787 357.11 595.954 350.844C566.643 345.237 537.48 335.974 509.272 327.019C500.802 324.33 492.25 321.641 483.619 318.952C465.468 315.244 447.016 313.21 428.493 312.875C406.443 312.613 384.447 315.107 363.015 320.297C341.548 325.5 320.985 333.898 302.014 345.211C285.799 354.932 272.434 369.21 259.607 383.032C244.024 399.758 227.904 417.035 206.821 425.882C195.621 430.356 183.64 432.55 171.581 432.336V432.336ZM-92.8194 314.717C-73.996 323.335 -50.3189 337.13 -25.3108 351.705C12.3359 373.661 55.0111 398.548 95.9519 414.723C143.212 433.398 179.46 436.947 206.794 425.573C227.809 416.807 243.903 399.556 259.473 382.857C272.367 369.022 285.705 354.73 301.933 344.982C320.923 333.685 341.499 325.296 362.974 320.095C384.427 314.893 406.447 312.395 428.52 312.66C446.243 312.986 463.903 314.88 481.293 318.32C460.826 311.883 440.016 306.591 418.96 302.468C388.413 296.781 363.956 296.337 342 301.124C317.113 306.502 295.305 318.764 275.325 338.636C265.496 348.411 257.846 361.318 250.411 373.795C240.502 390.467 230.243 407.718 214.593 418.165C203.043 425.842 188.912 429.566 172.576 429.217C157.934 428.921 141.504 425.506 122.331 418.796C86.9167 406.4 48.8129 385.022 11.9594 364.357C-27.2738 342.266 -64.302 321.493 -92.8194 314.717ZM1305.7 326.172H1306.62C1326.78 326.239 1344.65 328.713 1361.19 333.728C1379.53 339.221 1396.62 348.246 1411.5 360.296C1418.8 366.158 1425.05 371.388 1430.57 376.014C1459.49 400.215 1470.31 409.304 1520.65 415.489C1529.09 416.524 1537.74 417.68 1546.1 418.796C1590.3 424.712 1635.98 430.83 1680.16 423.381C1717.65 417.049 1753.13 399.328 1787.44 382.185C1812.08 369.883 1837.55 357.15 1863.34 348.921C1892.04 339.752 1918.24 337.197 1943.42 341.096C1931.89 332.743 1918.27 327.762 1904.07 326.71C1890.84 325.581 1876.45 327.302 1860.09 331.954C1829.78 340.585 1797.92 357.943 1767.09 374.723C1732.71 393.439 1700.24 411.133 1671.95 415.959C1654.5 418.984 1636.74 419.766 1619.1 418.286C1602.64 416.861 1586.38 413.706 1570.59 408.874C1539.33 399.462 1510.45 385.076 1479.87 369.883C1451.35 355.658 1421.87 340.948 1390.22 330.663C1363.45 321.95 1334.19 319.302 1300.77 322.596C1280.55 324.797 1260.48 328.218 1240.67 332.841C1262.46 328.875 1284.34 326.172 1305.63 326.172H1305.7ZM1058.09 352.511C1069.19 356.108 1080.77 357.976 1092.43 358.051H1092.57C1132.3 358.051 1172.28 348.505 1210.89 339.308C1216.68 337.919 1222.51 336.543 1228.36 335.18C1216.26 337.493 1204.1 340.048 1192.06 342.589C1170.03 347.241 1149.2 351.651 1128.65 354.528C1105.2 358.009 1081.31 357.327 1058.09 352.511V352.511ZM486.187 319.503C493.985 321.91 501.702 324.357 509.366 326.791C537.601 335.745 566.724 345.009 596.021 350.602C628.827 356.868 658.528 357.822 686.844 353.493C691.501 352.808 696.113 351.838 700.652 350.589C692.62 352.386 684.461 353.555 676.249 354.084C630.535 356.975 586.475 345.143 543.867 333.715C524.949 328.579 505.696 323.416 486.187 319.503ZM869.524 290.663C881.462 290.716 893.337 292.403 904.818 295.678C933.053 303.557 957.066 314.139 980.286 324.37C1003.28 334.495 1024.99 344.054 1048.74 350.091C1050.23 350.468 1051.71 350.817 1053.19 351.167C1024.27 340.895 997.308 321.076 970.955 301.715C932.609 273.48 896.374 246.912 858.633 253.474C829.054 258.596 805.699 278.751 780.96 300.102C759.098 318.925 736.591 338.327 708.558 348.29C731.737 342.011 752.739 331.483 773.243 321.184C793.747 310.885 813.417 301.016 834.768 295.396C846.097 292.305 857.782 290.714 869.524 290.663V290.663Z" fill="white"/>
<path d="M160.744 460.759H160.502C137.336 460.759 112.691 454.278 85.1281 441.062C60.5771 429.284 36.1202 413.378 12.5238 398.037C-19.9734 376.915 -53.5865 355.012 -87.4148 344.041L-88.3828 343.718H-87.361C-40.5984 346.098 -0.719809 370.609 37.8546 394.353C56.4225 405.862 75.7836 417.734 95.4137 426.743C117.397 436.827 137.605 442.232 157.262 443.253C180.119 444.463 203.729 439.368 229.328 427.711C252.185 417.277 274.787 402.568 296.622 388.343C338.302 361.197 381.327 333.137 431.572 330.26C474.113 327.826 515.416 340.922 555.376 353.574C591.368 364.989 628.598 376.78 666.89 377.385C702.305 377.936 736.685 367.637 769.935 357.674C811.521 345.211 854.532 332.317 900.354 340.276C926.155 344.767 948.286 350.374 967.795 355.335C1018.28 368.135 1058.16 378.192 1127.16 362.367C1182.19 349.688 1233.38 346.864 1283.64 353.708C1330.7 360.121 1378.32 374.898 1433.34 400.215C1535.43 447.166 1631.79 450.621 1745.78 411.388C1762.17 405.741 1779.65 397.042 1798.15 387.846C1824.06 374.952 1850.84 361.614 1877.61 355.214C1908.03 347.94 1933.55 351.113 1955.59 364.881L1956.02 365.15H1955.51C1928.73 364.155 1900.69 367.973 1869.82 376.82C1842.27 384.713 1814.99 395.819 1788.6 406.548C1750.95 421.889 1711.96 437.754 1670.98 444.826C1616.76 454.238 1558.9 456.645 1508.09 451.697C1478.28 448.806 1450.96 443.401 1426.88 435.657C1400.17 427.052 1377.27 415.489 1358.82 401.277C1324.83 375.086 1291.46 361.977 1253.82 360.027C1219.4 358.239 1184.65 365.594 1144.41 374.118C1132.61 376.619 1120.41 379.2 1107.71 381.647C1059.3 391.059 1015.36 380.047 972.85 369.439C934.774 360 895.406 350.132 853.847 355.469C827.803 358.817 805.175 365.042 783.299 371.052C742.628 382.252 704.201 392.82 652.504 381.58C627.819 376.202 603.51 368.874 579.994 361.775C545.399 351.328 512.768 341.459 478.778 337.265C461.7 335.034 444.431 334.642 427.269 336.095C409.076 337.693 391.176 341.703 374.04 348.021C342.631 359.516 315.835 380.504 289.913 400.807C271.089 415.597 251.5 430.911 230.552 442.137C207.184 454.668 184.341 460.759 160.744 460.759ZM-86.4333 344.054C-52.9008 355.2 -19.6104 376.834 12.6044 397.835C36.2546 413.203 60.7115 429.109 85.2088 440.86C112.718 454.05 137.336 460.49 160.502 460.531H160.744C184.3 460.531 207.09 454.453 230.431 441.936C251.352 430.722 270.874 415.422 289.751 400.632C315.687 380.33 342.497 359.315 373.945 347.806C391.099 341.454 409.022 337.416 427.242 335.799C444.422 334.346 461.708 334.738 478.805 336.969C509.326 340.747 538.798 349.069 569.56 358.32C564.76 356.827 559.974 355.308 555.228 353.802C515.295 341.15 474.005 328.081 431.531 330.502C381.34 333.365 338.315 361.426 296.716 388.545C274.867 402.77 252.347 417.492 229.382 427.926C203.729 439.637 180.119 444.705 157.181 443.522C137.565 442.5 117.316 437.082 95.333 426.985C75.6761 417.976 56.3418 406.091 37.6798 394.595C-0.612252 371.066 -40.1816 346.73 -86.4333 344.054ZM1243.21 359.476C1246.74 359.476 1250.27 359.557 1253.79 359.745C1291.5 361.695 1324.91 374.831 1358.94 401.049C1377.36 415.247 1400.25 426.796 1426.94 435.388C1450.99 443.132 1478.3 448.524 1508.08 451.415C1558.86 456.362 1616.69 453.915 1670.9 444.558C1711.79 437.485 1750.77 421.633 1788.47 406.292C1814.86 395.536 1842.14 384.444 1869.7 376.552C1900.41 367.758 1928.31 363.926 1954.97 364.854C1933.07 351.342 1907.75 348.276 1877.61 355.442C1850.87 361.829 1824.1 375.153 1798.2 388.034C1779.69 397.257 1762.21 405.956 1745.76 411.603C1693.58 429.566 1645.07 438.574 1598.04 438.588C1542.27 438.588 1488.54 425.909 1433.14 400.417C1378.13 375.113 1330.59 360.35 1283.5 353.937C1233.28 347.093 1182.13 349.903 1127.12 362.582C1058.07 378.488 1018.21 368.363 967.634 355.55C948.125 350.602 925.953 344.996 900.206 340.505C854.492 332.545 811.467 345.426 769.908 357.89C736.644 367.866 702.238 378.178 666.796 377.614C639.906 377.183 613.526 371.254 587.752 363.805C608.847 370.152 630.548 376.498 652.531 381.284C704.161 392.498 742.614 381.943 783.205 370.757C805.081 364.733 827.722 358.508 853.779 355.16C895.46 349.782 934.787 359.637 972.85 369.13C1015.32 379.725 1059.26 390.642 1107.59 381.338C1120.29 378.878 1132.49 376.296 1144.28 373.795C1180.45 366.185 1212.18 359.476 1243.21 359.476Z" fill="white"/>
<path d="M1396.46 486.13C1382.63 486.237 1369.01 482.862 1356.83 476.315C1337.69 466.137 1323.22 450.218 1307.92 433.371C1290.91 414.655 1273.34 395.294 1248.54 384.067C1225.76 373.945 1201.36 367.919 1176.48 366.266C1165.72 368.551 1155.13 371.079 1145.18 373.459C1140.61 374.548 1136.29 375.583 1132.06 376.565C1083.44 387.899 1036.77 385.143 991.66 382.467C959.392 380.571 926.343 378.608 892.259 381.728C874.278 384.871 856.577 389.448 839.325 395.415C814.949 404.006 794.123 417.747 773.982 431.031C754.822 443.683 736.725 455.623 717.512 461.7C695.999 468.503 676.02 466.984 654.682 456.927C634.514 447.421 615.691 436.88 597.513 426.702C568.162 410.258 540.438 394.729 510.011 385.022C475.847 374.037 443.255 371.953 407.464 378.46C364.439 386.272 333.004 409.385 302.591 431.731C284.037 445.391 264.85 459.522 243.432 469.66C220.154 480.876 194.5 486.27 168.677 485.377C123.917 484.033 71.4943 473.276 28.4158 456.577C-9.23092 441.976 -58.9783 415.489 -82.252 372.222L-82.373 372.007H-82.1176C-60.3228 373.822 -38.7163 379.738 -16.0477 390.091C4.12021 399.328 23.3335 411.173 41.8745 422.628C78.4321 445.203 116.24 468.544 164.051 473.357C197.369 476.718 224.111 472.739 248.219 460.826C269.731 450.231 286.148 434.823 303.613 418.5C327.546 396.141 352.285 373.015 392.513 359.677C429.447 347.429 471.074 346.501 519.786 356.854C560.767 365.553 599.624 380.343 642.541 397.351C672.497 409.223 699.159 414.225 726.439 413.095C751.394 412.047 774.735 406.144 801.733 399.287C820.556 394.528 841.826 389.123 866.122 384.914C874.861 383.395 883.601 382.292 892.138 381.499C937.22 373.432 985.166 372.087 1031.97 370.877C1061.55 370.111 1089.51 369.385 1116.77 367.019C1135.31 365.419 1155.45 364.437 1176.38 366.037C1210 358.911 1246.3 354.044 1275.88 362.595C1308.91 372.155 1318.9 391.139 1329.49 411.24C1336.85 425.236 1344.46 439.704 1360.21 452.45C1373.45 463.206 1389.06 467.912 1407.92 466.89C1424.76 465.976 1442.57 460.692 1459.8 455.582C1472.62 451.777 1485.88 447.838 1498.63 445.754C1525.96 441.25 1553.95 440.376 1581.05 439.583C1610.45 438.682 1640.86 437.754 1670.47 432.161C1694.27 427.67 1722.53 417.102 1752.49 405.929C1825.09 378.797 1907.34 348.047 1963.72 388.544L1964.01 388.746H1963.67C1910.64 395.469 1858.72 409.398 1808.49 422.897C1760.55 435.764 1710.99 449.088 1660.59 456.08C1633.7 459.804 1606.44 459.589 1580.04 459.387C1555.24 459.186 1529.6 458.984 1504.56 462.076C1487.71 464.147 1471.32 469.176 1455.48 474.029C1435.38 480.174 1415.95 486.13 1396.46 486.13ZM1177.41 366.064C1202.01 367.792 1226.13 373.803 1248.67 383.825C1273.51 395.065 1291.11 414.453 1308.13 433.183C1323.42 450.016 1337.86 465.922 1356.98 476.086C1390.19 493.74 1421.87 484.033 1455.4 473.76C1471.25 468.907 1487.67 463.878 1504.52 461.808C1529.59 458.715 1555.23 458.917 1580.04 459.119C1606.43 459.334 1633.72 459.549 1660.55 455.824C1710.98 448.833 1760.54 435.522 1808.45 422.642C1858.57 409.196 1910.4 395.254 1963.32 388.531C1907.05 348.424 1825.01 379.119 1752.61 406.144C1722.68 417.331 1694.42 427.899 1670.59 432.403C1641.01 437.996 1610.53 438.924 1581.11 439.825C1554.05 440.645 1525.99 441.492 1498.73 445.983C1486.01 448.08 1472.76 452.006 1459.94 455.811C1442.71 460.934 1424.87 466.218 1408.01 467.132C1389.07 468.154 1373.4 463.408 1360.1 452.638C1344.32 439.851 1336.69 425.357 1329.31 411.334C1318.77 391.287 1308.79 372.343 1275.87 362.837C1246.61 354.353 1210.74 359.059 1177.41 366.064ZM-81.8218 372.262C-68.9278 396.087 -39.2945 429.929 28.5906 456.282C71.6154 472.981 124.052 483.737 168.757 485.054C194.539 485.947 220.152 480.562 243.392 469.364C264.77 459.24 283.943 445.162 302.484 431.462C332.87 409.089 364.332 385.963 407.357 378.138C443.202 371.63 475.833 373.714 510.051 384.713C540.491 394.487 568.229 410.016 597.593 426.46C615.785 436.651 634.595 447.179 654.736 456.685C676.006 466.715 695.918 468.221 717.377 461.445C736.55 455.381 754.634 443.441 773.78 430.803C793.948 417.505 814.774 403.764 839.178 395.159C855.468 389.515 872.167 385.124 889.127 382.023C881.53 382.776 873.88 383.798 866.189 385.143C841.907 389.351 820.61 394.743 801.827 399.516C774.802 406.359 751.447 412.275 726.466 413.324C699.145 414.467 672.443 409.452 642.447 397.566C599.556 380.558 560.713 365.768 519.745 357.069C471.074 346.73 429.487 347.657 392.607 359.893C352.446 373.217 327.72 396.316 303.869 418.648C286.39 434.984 269.879 450.419 248.407 461.028C224.205 472.954 197.449 476.947 164.092 473.586C116.213 468.772 78.3918 445.351 41.8072 422.816C23.2663 411.361 4.09332 399.529 -16.1014 390.292C-38.6357 379.993 -60.1481 374.091 -81.8218 372.262V372.262ZM930.699 379.818C951.378 379.818 971.694 381.029 991.673 382.198C1036.77 384.887 1083.41 387.576 1131.99 376.309C1136.24 375.314 1140.55 374.292 1145.12 373.19C1154.79 370.877 1165.02 368.43 1175.52 366.185C1155.98 364.984 1136.37 365.339 1116.88 367.247C1089.61 369.614 1061.66 370.34 1032.06 371.106C986.349 372.303 939.452 373.526 895.258 381.19C907.197 380.168 919.002 379.818 930.699 379.818V379.818Z" fill="white"/>
<path d="M1381.33 533.094C1365.06 533.094 1348.98 528.819 1331.26 519.824C1306.1 507.078 1290.84 485.001 1276.14 463.663C1264.34 446.601 1252.15 428.961 1235.05 416.457C1220.26 405.7 1204.12 399.462 1184.17 396.934C1166.54 394.702 1148.74 395.67 1129.9 396.679C1125.87 396.907 1121.6 397.136 1117.43 397.324C1101.93 398.023 1086.19 398.507 1070.97 398.964C1032.55 400.134 992.817 401.331 954.471 406.319C911.541 411.899 874.607 421.768 841.625 436.49C816.967 447.515 796.275 459.912 778.016 470.843C752.053 486.399 729.613 499.831 704.565 504.348C691.153 506.735 677.406 506.507 664.081 503.676C648.834 500.57 632.659 494.399 614.616 484.785C566.025 458.903 522.57 442.769 481.79 435.468C458.839 431.205 435.422 430.016 412.157 431.932C388.223 434.061 364.797 440.088 342.807 449.774C326.807 456.819 312.461 463.744 298.572 470.439C270.337 484.073 245.92 495.837 218.653 503.367C188.778 511.595 158.459 513.693 123.192 509.941C93.1152 506.741 48.9206 500.342 12.5244 481.706C-8.42333 470.95 -23.8988 454.722 -38.8634 438.991C-51.475 425.734 -64.5169 412.033 -80.7453 401.774L-81.1621 401.519H-80.6781C-61.6127 402.003 -41.9961 407.354 -20.6854 417.882C-1.62003 427.294 17.1764 439.945 35.3678 452.208C71.791 476.759 109.451 502.13 154.21 505.989C169.108 507.377 184.126 506.694 198.835 503.958C211.923 501.441 224.646 497.304 236.71 491.642C260.24 480.738 280.461 465.491 301.879 449.357C328.273 429.458 355.553 408.9 389.758 396.921C431.021 382.548 476.318 385.049 532.277 404.773C556.479 413.284 578.287 431.031 599.436 448.201C620.075 464.954 639.584 480.792 660.141 487.528C676.491 492.906 693.351 491.481 713.21 483.064C730.689 475.643 747.845 463.972 765.942 451.603C789.256 435.683 813.377 419.226 838.452 412.705C878.56 402.272 925.026 394.783 976.575 390.413C1018.71 386.85 1064.45 385.277 1116.41 385.586C1163.61 385.869 1202.79 387.67 1241.29 407.569C1260.5 417.505 1276.98 433.115 1292.93 448.093C1310.93 465.088 1329.57 482.661 1352.09 491.938C1391.24 508.073 1421.47 497.895 1456.46 486.076C1465.3 483.105 1474.43 480.012 1484.09 477.229C1516.83 467.818 1551.08 464.241 1584.19 460.839C1608.31 458.352 1633.25 455.784 1657.54 450.944C1674.34 447.596 1698.61 438.964 1726.71 428.961C1810.07 399.287 1924.28 358.642 1965.04 413.136L1965.19 413.337H1964.94C1898.43 416.174 1834.7 434.272 1773.09 451.777C1734.97 462.601 1695.55 473.801 1655.56 481.357C1630.12 486.197 1604.29 488.94 1579.31 491.602C1541.79 495.636 1503 499.669 1465.62 511.031C1456.37 513.827 1447.93 516.745 1439.75 519.555C1421.16 525.968 1405.09 531.508 1388.07 532.731C1385.78 533.014 1383.56 533.094 1381.33 533.094ZM1160.28 395.307C1168.26 395.255 1176.23 395.704 1184.16 396.652C1204.16 399.18 1220.36 405.405 1235.17 416.215C1252.31 428.759 1264.52 446.413 1276.31 463.488C1291.1 484.812 1306.29 506.849 1331.44 519.582C1351.6 529.773 1369.53 533.901 1388.05 532.583C1405.05 531.373 1421.09 525.861 1439.67 519.42C1447.84 516.61 1456.3 513.693 1465.55 510.896C1502.96 499.575 1541.76 495.447 1579.29 491.454C1604.27 488.765 1630.09 486.076 1655.53 481.209C1695.49 473.599 1734.86 462.386 1773.02 451.629C1834.58 434.151 1898.25 416.067 1964.68 413.189C1923.9 359.166 1810.06 399.744 1726.81 429.324C1698.71 439.327 1674.37 447.972 1657.59 451.32C1633.31 456.16 1608.37 458.729 1584.23 461.202C1551.13 464.618 1516.89 468.14 1484.17 477.592C1474.52 480.375 1465.35 483.468 1456.56 486.439C1421.51 498.271 1391.24 508.489 1351.99 492.301C1329.47 482.997 1310.82 465.411 1292.83 448.403C1276.9 433.371 1260.44 417.828 1241.26 407.919C1202.82 388.047 1163.67 386.245 1116.5 385.963C1064.57 385.64 1018.85 387.227 976.669 390.79C925.147 395.159 878.694 402.648 838.6 413.068C813.565 419.576 789.471 436.033 766.171 451.939C748.06 464.308 730.958 475.979 713.398 483.427C704.987 487.145 696.069 489.588 686.938 490.674C677.899 491.679 668.749 490.72 660.115 487.864C639.503 481.142 619.981 465.249 599.315 448.47C578.193 431.327 556.358 413.593 532.237 405.095C476.251 385.385 431.008 382.857 389.865 397.243C355.701 409.156 328.42 429.7 302.054 449.586C280.636 465.72 260.374 480.98 236.831 491.898C211.084 504.045 182.534 509.011 154.197 506.271C109.37 502.426 71.6834 477.028 35.2334 452.49C17.0554 440.228 -1.75449 427.562 -20.7795 418.164C-41.8751 407.758 -61.3169 402.42 -80.1806 401.855C-64.1135 412.1 -51.1658 425.694 -38.6482 438.856C-23.7106 454.56 -8.24854 470.789 12.6723 481.505C48.9744 500.113 93.1824 506.513 123.233 509.74C158.446 513.491 188.751 511.394 218.586 503.165C245.772 495.595 270.203 483.817 298.438 470.251C312.326 463.528 326.672 456.631 342.686 449.572C364.735 439.866 388.226 433.839 412.225 431.73C435.511 429.802 458.951 430.987 481.925 435.253C522.745 442.567 566.213 458.702 614.831 484.611C632.848 494.211 649.009 500.368 664.229 503.434C677.505 506.25 691.2 506.483 704.565 504.12C729.586 499.602 751.986 486.184 777.935 470.641C796.194 459.697 816.927 447.3 841.572 436.262C874.526 421.539 911.487 411.67 954.404 406.077C992.763 401.089 1032.49 399.892 1070.92 398.722C1086.14 398.265 1101.84 397.781 1117.37 397.082C1121.54 396.894 1125.76 396.665 1129.85 396.437C1140.26 395.859 1150.36 395.307 1160.28 395.307Z" fill="white"/>
</g>
</g>
</svg>
