<svg width="20" height="20" viewBox="0 0 20 20" fill="none" xmlns="http://www.w3.org/2000/svg">
<path d="M1.8569 17.9059C2.01386 18.0774 2.2573 18.1399 2.47746 18.0651L4.98589 17.2134L6.03458 19.646C6.12685 19.86 6.3372 19.9991 6.57025 20H6.57267C6.80479 20 7.0151 19.863 7.10881 19.6504L9.06361 15.2164C9.3697 15.254 9.68123 15.2737 9.99733 15.2737C10.3134 15.2737 10.625 15.254 10.9311 15.2164L12.8858 19.6504C12.9795 19.863 13.1899 20 13.422 20H13.4244C13.6575 19.9991 13.8679 19.86 13.9601 19.646L15.0088 17.2134L17.5173 18.0651C17.7372 18.1399 17.9809 18.0774 18.1378 17.9059C18.2948 17.7345 18.3356 17.4865 18.2417 17.2738L16.0415 12.2865C17.0275 11.0024 17.6147 9.39677 17.6147 7.65635C17.6147 3.43462 14.1975 0 9.99737 0C5.79719 0 2.38008 3.43462 2.38008 7.65635C2.38008 9.39677 2.96723 11.0024 3.95326 12.2865L1.753 17.2738C1.65917 17.4865 1.69991 17.7345 1.8569 17.9059ZM16.6312 16.5267L14.8733 15.9297C14.584 15.8315 14.2678 15.9721 14.1468 16.2526L13.416 17.9479L12.1061 14.9765C13.2678 14.6413 14.316 14.0364 15.1788 13.2344L16.6312 16.5267ZM3.55197 7.65635C3.55197 4.0808 6.44337 1.17189 9.99737 1.17189C13.5514 1.17189 16.4428 4.0808 16.4428 7.65635C16.4428 11.2103 13.5514 14.1018 9.99737 14.1018C6.44337 14.1018 3.55197 11.2103 3.55197 7.65635ZM4.81593 13.2344C5.67875 14.0364 6.72697 14.6414 7.88867 14.9765L6.57869 17.9479L5.8479 16.2526C5.72692 15.972 5.4107 15.8315 5.12144 15.9297L3.36349 16.5266L4.81593 13.2344Z" fill="#B3987F"/>
<path d="M7.69853 8.40406L7.35591 10.4015C7.31822 10.6213 7.40857 10.8435 7.589 10.9746C7.76912 11.1054 8.00834 11.1231 8.20608 11.0192L9.99989 10.0761L11.7937 11.0192C11.9911 11.123 12.2304 11.1057 12.4107 10.9746C12.5912 10.8435 12.6816 10.6213 12.6439 10.4015L12.3013 8.40406L13.7525 6.98946C13.9122 6.8338 13.9697 6.60094 13.9007 6.38883C13.8318 6.17672 13.6485 6.02211 13.4278 5.99004L11.4222 5.69863L10.5253 3.88133C10.4266 3.68133 10.2229 3.55469 9.99989 3.55469C9.77688 3.55469 9.57317 3.68129 9.47446 3.88133L8.57757 5.69863L6.57203 5.99004C6.35133 6.02211 6.16793 6.17672 6.09902 6.38883C6.03007 6.60094 6.08757 6.8338 6.24726 6.9895L7.69853 8.40406ZM9.05094 6.81399C9.2418 6.78626 9.40676 6.66641 9.49211 6.49344L9.99989 5.46456L10.5077 6.49344C10.593 6.66637 10.758 6.78626 10.9489 6.81399L12.0843 6.979L11.2627 7.77987C11.1246 7.91448 11.0616 8.10843 11.0942 8.29851L11.2882 9.42938L10.2726 8.89547C10.1019 8.80574 9.89794 8.8057 9.72723 8.89547L8.71163 9.42938L8.90558 8.29851C8.93816 8.10843 8.87515 7.91448 8.73706 7.77987L7.91541 6.979L9.05094 6.81399Z" fill="#B3987F"/>
</svg>
