<svg width="431" height="257" viewBox="0 0 431 257" fill="none" xmlns="http://www.w3.org/2000/svg">
<g clip-path="url(#clip0_1702_8541)">
<path d="M310.578 59.7601C310.578 59.7601 324.278 43.2301 350.578 53.7601C376.878 64.2901 402.578 107.57 378.678 159.91" stroke="#071031" stroke-width="0.78" stroke-miterlimit="10"/>
<path d="M313.253 71.2901C312.053 74.3801 300.103 69.7301 301.303 66.64L302.983 62.3401C303.6 60.7576 304.819 59.4844 306.373 58.8001C307.928 58.1157 309.69 58.0761 311.273 58.69C312.059 58.9941 312.777 59.4503 313.386 60.0324C313.995 60.6145 314.483 61.3111 314.822 62.0822C315.161 62.8533 315.344 63.6838 315.362 64.526C315.379 65.3682 315.23 66.2056 314.923 66.99L313.253 71.2901Z" fill="#03AA99"/>
<path d="M301.302 66.6399C299.942 69.6399 312.052 74.3799 313.252 71.2899C314.162 68.8999 302.282 64.4599 301.302 66.6399Z" fill="#005EFF"/>
<path d="M305.998 69.0001C305.868 69.3901 305.298 69.5401 304.718 69.3501C304.138 69.1601 303.788 68.6801 303.918 68.3501C304.048 68.0201 304.618 67.8001 305.188 68.0001C305.758 68.2001 306.148 68.5701 305.998 69.0001Z" fill="#071031"/>
<path d="M310.263 70.5199C310.133 70.9099 309.563 71.0699 308.983 70.8699C308.403 70.6699 308.053 70.2099 308.183 69.8199C308.313 69.4299 308.883 69.2799 309.453 69.4699C310.023 69.6599 310.393 70.1399 310.263 70.5199Z" fill="#071031"/>
<path d="M376.752 221.46C373.335 220.349 370.35 218.199 368.212 215.31C364.842 210.58 366.642 199.31 372.482 196.07C378.322 192.83 382.812 189.07 381.912 180.26C381.012 171.45 383.912 164.54 391.352 163.64C398.792 162.74 401.682 162.64 409.092 155.95C416.502 149.26 422.572 148.21 425.492 151.95C428.412 155.69 426.162 160.86 424.592 165.37C423.022 169.88 428.592 174.5 429.752 179.05C430.912 183.6 429.982 189.46 424.142 192.7C418.302 195.94 414.262 198.54 414.932 204.43C415.602 210.32 412.232 219.26 399.662 221.43L376.752 221.46Z" fill="#3DC19A"/>
<path d="M416.054 161.45C416.054 161.45 388.694 182.92 383.844 221.45" stroke="#071031" stroke-width="1.57" stroke-miterlimit="10" stroke-linecap="round"/>
<path d="M351.142 145.44C346.832 148.14 347.142 152.84 347.322 158.8C347.502 164.76 345.842 166.93 342.432 170.9C339.022 174.87 340.852 180.9 346.782 183.63C352.712 186.36 357.882 190.49 354.782 197.51C351.682 204.53 352.782 217.28 368.252 221.51H388.182C388.182 221.51 402.182 213.37 403.962 198.51C405.742 183.65 393.862 182.34 390.492 177.38C387.122 172.42 388.122 165.66 388.182 158.82C388.242 151.98 383.082 148.52 376.112 148.9C369.142 149.28 366.432 148.9 362.842 146.44C359.252 143.98 354.742 143.18 351.142 145.44Z" fill="#91DBAC"/>
<path d="M358.07 154.26C358.07 154.46 382.31 170.9 381.12 221.38" stroke="#071031" stroke-width="1.57" stroke-miterlimit="10" stroke-linecap="round"/>
<path d="M414 224.38H1.57C1.15269 224.377 0.753378 224.21 0.45923 223.914C0.165082 223.618 -8.35811e-06 223.217 3.17371e-10 222.8C3.17371e-10 222.384 0.16541 221.984 0.459842 221.69C0.754274 221.395 1.15361 221.23 1.57 221.23H414C414.416 221.23 414.816 221.395 415.11 221.69C415.405 221.984 415.57 222.384 415.57 222.8C415.571 223.007 415.532 223.212 415.453 223.404C415.375 223.596 415.26 223.77 415.114 223.917C414.968 224.063 414.794 224.18 414.603 224.26C414.412 224.339 414.207 224.38 414 224.38Z" fill="#0057FF"/>
<path d="M207 207.83C210.37 210.54 220 221.43 256.73 221.43C266.98 221.43 278.05 221.86 287.04 219.43C310.28 213.12 325.49 204.66 325.49 204.66L280.54 189.37L240.24 189.6L207 207.83Z" fill="#071031"/>
<path d="M237.932 201.41L220.352 204.75L220.992 214.33L240.692 213.84L237.932 201.41Z" fill="#FF9A8D"/>
<path d="M237.93 201.41C237.93 201.41 280.54 189.41 293.79 185.99C308.96 182.13 331.98 171.67 339.74 181.37C347.5 191.07 338 204 317 209.65C296 215.3 238.58 214.76 238.58 214.76L237.93 201.41Z" fill="#071031"/>
<path d="M203.813 198.9C203.285 201.146 203.09 203.457 203.233 205.76C203.343 210.42 205.703 213.96 205.953 220.76C207.769 217.247 208.634 213.321 208.463 209.37C208.483 207.394 208.078 205.436 207.276 203.63C206.473 201.823 205.293 200.21 203.813 198.9Z" fill="#8FC9C6"/>
<path d="M229.298 214.54C226.548 214.83 221.948 216.98 219.118 218.48C216.288 219.98 214.788 221.54 209.758 221.48C209.758 221.48 209.758 208.16 209.198 204.05C208.638 199.94 207.828 199.22 207.828 199.22C207.828 199.22 212.488 199.52 214.828 200.76C217.168 202 217.408 202.57 221.508 202.76C225.608 202.95 227.278 203.14 229.058 203.11C230.108 204.823 230.683 206.784 230.725 208.792C230.768 210.801 230.275 212.785 229.298 214.54Z" fill="#03AA99"/>
<path d="M217.386 216.12C217.386 216.12 218.946 209.2 216.656 204.47" stroke="#AAEEED" stroke-width="0.92" stroke-miterlimit="10" stroke-linecap="round"/>
<path d="M220.28 215.31C221.131 211.891 220.883 208.29 219.57 205.02" stroke="#AAEEED" stroke-width="0.92" stroke-miterlimit="10" stroke-linecap="round"/>
<path d="M223.528 214C223.528 214 224.898 210.49 223.078 205.3" stroke="#AAEEED" stroke-width="0.92" stroke-miterlimit="10" stroke-linecap="round"/>
<path d="M209.757 221.5C208.157 221.5 206.217 221.43 205.947 220.76C205.677 220.09 207.537 216.12 206.797 208.24C206.397 204.01 203.427 199.04 203.797 198.9C204.167 198.76 206.517 197.9 207.797 199.24C209.077 200.58 215.707 209.23 209.757 221.5Z" fill="#AAEEED"/>
<path d="M315.359 113.37C320.899 109.45 332.849 100.37 339.129 80.7401C340.596 76.4514 341.313 71.9422 341.249 67.4101C338.009 64.6801 338.349 59.5201 335.389 56.3201C331.229 51.8201 327.509 46.1001 335.639 46.1001C340.169 46.1001 344.339 46.2901 346.569 48.4401C348.881 51.0031 350.811 53.8861 352.299 57.0001C353.679 61.0001 352.079 66.0001 351.899 72.0601C351.719 78.1201 347.749 116.06 318.479 131.98L315.359 113.37Z" fill="#FF9A8D"/>
<path d="M251.928 99.0801C251.88 101.376 251.697 103.666 251.378 105.94C250.958 107.94 251.378 109 245.258 110.06C245.258 110.06 247.738 118.06 258.348 119.45C268.958 120.84 273.278 112.45 272.958 112.45C271.491 111.989 270.077 111.375 268.738 110.62C267.788 110.01 268.488 98.3101 268.488 98.3101L251.928 99.0801Z" fill="#FF9A8D"/>
<path d="M268.349 101.3C268.349 101.3 267.059 105.41 260.619 105.84C254.179 106.27 251.789 102.2 251.789 102.2L251.929 99.0801L268.489 98.3401L268.349 101.3Z" fill="#BA5964"/>
<path d="M241.811 81.46C241.811 81.46 238.481 80.94 237.021 83.39C235.561 85.84 237.391 90.39 240.851 91.17C244.311 91.95 245.261 90 245.261 90L241.811 81.46Z" fill="#FF9A8D"/>
<path d="M238.897 83.91C239.314 83.6864 239.777 83.5644 240.25 83.554C240.723 83.5435 241.191 83.645 241.617 83.85C241.897 84.01 241.527 84.49 241.267 84.43C239.847 84.11 238.167 84.26 237.717 85.94C237.717 86.03 237.617 85.94 237.617 85.94C237.617 85.5153 237.737 85.0993 237.964 84.7401C238.19 84.3809 238.514 84.0931 238.897 83.91Z" fill="#BA5964"/>
<path d="M239.552 84C239.702 83.91 240.092 84.24 240.072 84.34C239.794 84.5342 239.571 84.7957 239.422 85.1C239.212 85.5999 239.17 86.1542 239.302 86.68C239.404 87.2972 239.711 87.862 240.174 88.283C240.637 88.704 241.228 88.9566 241.852 89C241.852 89 241.922 89.06 241.852 89.08C240.732 89.52 239.272 88.51 238.852 87.51C238.432 86.51 238.322 84.75 239.552 84Z" fill="#BA5964"/>
<path d="M273.999 75.28C273.999 75.28 276.899 73.57 279.159 75.28C281.419 76.99 281.419 81.93 278.489 83.92C275.559 85.91 273.969 84.51 273.969 84.51L273.999 75.28Z" fill="#FF9A8D"/>
<path d="M277.603 76.4799C277.129 76.4322 276.65 76.498 276.207 76.6719C275.764 76.8458 275.368 77.1228 275.053 77.4799C274.853 77.7399 275.373 78.0399 275.593 77.8899C276.793 77.0599 278.403 76.5899 279.453 77.9799C279.513 78.0499 279.543 77.9799 279.523 77.8999C279.369 77.5062 279.107 77.164 278.768 76.9127C278.428 76.6615 278.024 76.5114 277.603 76.4799Z" fill="#BA5964"/>
<path d="M277 76.76C276.83 76.76 276.59 77.17 276.64 77.27C276.972 77.3414 277.279 77.5002 277.53 77.73C277.916 78.1101 278.159 78.6115 278.22 79.15C278.361 79.7631 278.29 80.4061 278.017 80.9732C277.744 81.5403 277.287 81.9976 276.72 82.27V82.36C277.92 82.36 278.9 80.87 278.91 79.8C278.92 78.73 278.45 77 277 76.76Z" fill="#BA5964"/>
<path d="M262.069 59.16C259.504 58.2536 256.748 58.0262 254.069 58.5C251.369 59.0183 248.848 60.2237 246.749 62C244.431 64.0841 242.702 66.7401 241.733 69.7024C240.764 72.6646 240.591 75.8294 241.229 78.88C241.56 80.6414 241.998 82.3812 242.539 84.09L243.299 86.48C244.274 89.5451 245.638 92.4724 247.359 95.19C248.862 97.7382 251.116 99.7596 253.813 100.977C256.509 102.195 259.516 102.549 262.421 101.992C265.327 101.435 267.989 99.9931 270.044 97.8643C272.099 95.7354 273.445 93.0236 273.899 90.1C274.488 86.9362 274.67 83.7099 274.439 80.5L274.259 78C274.127 76.2108 273.89 74.4311 273.549 72.67C272.992 69.6075 271.638 66.746 269.622 64.374C267.607 62.0021 265.001 60.2036 262.069 59.16Z" fill="#FF9A8D"/>
<path d="M264.452 77.5801C264.389 77.2454 264.426 76.8994 264.559 76.5858C264.692 76.2723 264.915 76.0053 265.2 75.8189C265.486 75.6324 265.82 75.5348 266.16 75.5384C266.501 75.5421 266.833 75.6468 267.114 75.8393C267.395 76.0319 267.612 76.3035 267.739 76.6198C267.865 76.9362 267.895 77.2829 267.824 77.6162C267.753 77.9494 267.585 78.2541 267.341 78.4915C267.097 78.729 266.787 78.8886 266.452 78.9501C266.006 79.032 265.545 78.934 265.17 78.6773C264.795 78.4207 264.537 78.0262 264.452 77.5801Z" fill="#071031"/>
<path d="M264.86 71.3401L273 72.8701C272.713 72.0828 272.253 71.3698 271.654 70.7832C271.056 70.1966 270.333 69.7514 269.54 69.4801C268.981 69.2335 268.376 69.1062 267.765 69.1062C267.154 69.1062 266.55 69.2335 265.99 69.4801C265.642 69.6479 265.351 69.9129 265.15 70.243C264.95 70.573 264.849 70.9541 264.86 71.3401Z" fill="#071031"/>
<path d="M250.931 73.8099L245.001 79.5599C244.804 78.7452 244.792 77.8969 244.965 77.0769C245.138 76.2568 245.492 75.4858 246.001 74.8199C246.337 74.3048 246.778 73.8659 247.295 73.5318C247.812 73.1976 248.393 72.9755 249.001 72.8799C249.378 72.836 249.759 72.9001 250.101 73.0647C250.443 73.2294 250.73 73.4879 250.931 73.8099Z" fill="#071031"/>
<path d="M253.622 79.9C253.56 79.5646 253.4 79.2552 253.162 79.0111C252.924 78.767 252.619 78.5992 252.285 78.529C251.951 78.4588 251.604 78.4894 251.288 78.6169C250.972 78.7444 250.7 78.963 250.509 79.245C250.317 79.527 250.213 79.8596 250.211 80.2006C250.209 80.5417 250.308 80.8757 250.496 81.1602C250.684 81.4447 250.952 81.667 251.267 81.7987C251.581 81.9304 251.928 81.9657 252.262 81.9C252.707 81.8127 253.099 81.5538 253.353 81.1794C253.608 80.8049 253.705 80.3452 253.622 79.9Z" fill="#071031"/>
<path d="M259.606 78.21C258.826 78.42 258.256 86.42 259.346 87.56C259.636 87.8331 259.986 88.0334 260.368 88.1446C260.75 88.2557 261.153 88.2745 261.543 88.1993C261.934 88.1241 262.301 87.9571 262.615 87.712C262.928 87.467 263.179 87.151 263.346 86.79C263.906 85.34 260.416 78.11 259.606 78.21Z" fill="#BA5964"/>
<path d="M232.688 63.81C232.688 63.81 238.848 62.61 241.188 65.81" stroke="#071031" stroke-width="1.71" stroke-miterlimit="10" stroke-linecap="round"/>
<path d="M232.508 57.75C232.508 57.75 240.148 59.04 241.298 66.34" stroke="#071031" stroke-width="1.71" stroke-miterlimit="10" stroke-linecap="round"/>
<path d="M243.758 65.78C243.758 65.78 248.058 72.27 255.138 74.18C262.218 76.09 266.228 67.9 265.508 64.18C265.508 64.18 272.428 75.32 273.988 75.28C275.023 72.2234 275.408 68.9841 275.118 65.77C274.986 63.8909 274.422 62.0676 273.47 60.4422C272.518 58.8169 271.203 57.4336 269.628 56.4C268.787 55.7883 267.777 55.4538 266.737 55.443C265.698 55.4323 264.681 55.7458 263.828 56.34C262.687 54.0599 260.868 52.189 258.621 50.984C256.374 49.779 253.809 49.2991 251.278 49.61C242.918 50.55 239.668 56.32 240.888 65.13C240.888 65.13 237.748 64.24 235.888 67.88C234.028 71.52 236.098 78.6 238.598 81.95C239.635 81.6021 240.724 81.4364 241.818 81.46C241.818 81.46 240.348 75.64 241.728 70.53C242.838 66.38 243.758 65.78 243.758 65.78Z" fill="#071031"/>
<path d="M247.89 109.5C248.64 112.5 252.89 117.31 259.12 117.6C265.35 117.89 270.45 113.72 271.3 111.89C276.48 112.37 283.07 113.77 285.3 114.18C288.43 114.74 291.47 117.54 290.35 126.35C289.26 134.91 282.47 189.01 282.47 189.01C282.47 189.01 264.52 196.01 240.26 189.59C240.26 189.59 225.58 130.87 224.26 125.79C222.94 120.71 221.35 115.34 226 113.74C230.65 112.14 247.89 109.5 247.89 109.5Z" fill="#3ED9C7"/>
<path d="M267.924 172C268.254 172.068 268.588 172.118 268.924 172.15C272.344 172.51 270.784 168.65 269.714 167.15C268.074 164.83 256.714 156.01 256.714 156.01L247.874 156.76L237.874 160.86L233.844 164C234.664 167.3 235.474 170.51 236.214 173.48C239.934 171.15 248.934 165.62 250.934 165.43C252.152 165.399 253.359 165.674 254.444 166.23C256.064 166.93 257.684 167.57 259.344 168.17C260.094 168.45 260.854 168.72 261.574 169.07C262.874 169.7 264.054 170.57 265.364 171.17C266.18 171.55 267.04 171.828 267.924 172Z" fill="#03AA99"/>
<path d="M306.133 153.46L312.573 156.53" stroke="#071031" stroke-width="2.1" stroke-miterlimit="10" stroke-linecap="round"/>
<path d="M303.406 158.8L309.846 161.88" stroke="#071031" stroke-width="2.1" stroke-miterlimit="10" stroke-linecap="round"/>
<path d="M213.453 181.37C221.933 182.6 236.943 182.91 250.213 170.9C260.893 161.23 270.643 142.78 295.453 150.9" stroke="#274D79" stroke-width="0.78" stroke-miterlimit="10"/>
<path d="M307.133 150C310.063 151.55 304.063 162.88 301.133 161.33L297.053 159.17C295.551 158.375 294.426 157.017 293.925 155.393C293.424 153.769 293.589 152.013 294.383 150.51C295.18 149.007 296.54 147.882 298.166 147.382C299.791 146.881 301.549 147.046 303.053 147.84L307.133 150Z" fill="#03AA99"/>
<path d="M219.443 122.62C219.443 122.62 199.363 158.9 195.713 165C192.063 171.1 192.813 178 193.573 179.71C194.333 181.42 204.733 182.61 214.283 178.96C223.833 175.31 248.443 162.81 250.283 161.84C251.792 162.819 253.358 163.707 254.973 164.5C258.253 166.05 260.913 166.11 263.033 167.72C265.153 169.33 267.493 172.4 271.603 170.42C274.053 169.24 268.603 161.62 266.193 157.42C263.823 155.42 255.333 151.88 251.083 152.48C245.083 153.34 214.853 163.62 214.853 163.62L225.803 144.73L219.443 122.62Z" fill="#FF9A8D"/>
<path d="M226.998 113.41C222.068 114.96 220.168 117.41 215.348 126.14C210.528 134.87 204.148 145.57 204.148 145.57C208.174 151.028 214.121 154.756 220.788 156L228.548 142.9L226.998 113.41Z" fill="#3ED9C7"/>
<path d="M285.281 114.18C291.181 115.18 306.181 119.54 315.361 113.37C319.111 119.646 320.855 126.916 320.361 134.21C320.361 134.21 307.921 145.3 288.481 140.85L285.281 114.18Z" fill="#3ED9C7"/>
<path d="M287.039 204.15L304.289 208.89L302.889 218.38L283.289 216.32L287.039 204.15Z" fill="#FF9A8D"/>
<path d="M287 204.15C287 204.15 247.35 190.47 232.65 185.09C217.95 179.71 196.41 168.93 187.9 177.98C179.39 187.03 186.5 200.5 206.96 207.83C227.42 215.16 285.24 217.4 285.24 217.4C286.987 213.216 287.594 208.645 287 204.15Z" fill="#85B8ED"/>
<path d="M321.239 204.38C321.581 206.66 321.581 208.979 321.239 211.26C320.759 215.9 318.119 219.26 317.339 226C315.813 222.35 315.265 218.366 315.749 214.44C315.89 212.468 316.453 210.549 317.4 208.813C318.348 207.077 319.657 205.566 321.239 204.38Z" fill="#8FC9C6"/>
<path d="M294.58 217.93C297.31 218.44 301.72 220.93 304.42 222.67C307.12 224.41 308.49 226.06 313.51 226.43C313.51 226.43 314.6 213.16 315.46 209.09C316.32 205.02 317.22 204.39 317.22 204.39C317.22 204.39 312.54 204.32 310.13 205.39C307.72 206.46 307.41 206.99 303.32 206.82C299.23 206.65 297.54 206.74 295.76 206.56C294.578 208.183 293.846 210.089 293.639 212.086C293.432 214.083 293.756 216.099 294.58 217.93Z" fill="#03AA99"/>
<path d="M306.341 220.45C306.341 220.45 305.341 213.45 307.991 208.9" stroke="#AAEEED" stroke-width="0.92" stroke-miterlimit="10" stroke-linecap="round"/>
<path d="M303.523 219.42C302.945 215.944 303.481 212.374 305.053 209.22" stroke="#AAEEED" stroke-width="0.92" stroke-miterlimit="10" stroke-linecap="round"/>
<path d="M300.391 217.86C300.391 217.86 299.301 214.24 301.531 209.22" stroke="#AAEEED" stroke-width="0.92" stroke-miterlimit="10" stroke-linecap="round"/>
<path d="M313.512 226.43C315.102 226.53 317.052 226.64 317.372 226C317.692 225.36 316.152 221.24 317.522 213.45C318.262 209.26 321.612 204.55 321.242 204.38C320.872 204.21 318.622 203.15 317.242 204.38C315.862 205.61 308.562 213.72 313.512 226.43Z" fill="#AAEEED"/>
<path d="M287.003 211.26H286.103C286.103 211.26 260.263 209.58 232.583 205.02C205.403 200.54 187.023 191.4 184.583 184.67C183.373 192.8 191.203 202.16 207.043 207.83C227.513 215.15 285.323 217.4 285.323 217.4C286.126 215.428 286.69 213.366 287.003 211.26Z" fill="#4E7EAC"/>
<path d="M281.902 201.82C281.902 205.4 281.133 213.44 279.562 218.38" stroke="#274D79" stroke-width="0.78" stroke-miterlimit="10"/>
<path d="M228.547 142.85C228.547 142.85 231.627 134.68 229.547 122.62C229.547 122.62 233.417 137.33 229.217 145.44L228.547 142.85Z" fill="#03AA99"/>
<path d="M288.499 140.85C289.123 134.84 288.823 128.769 287.609 122.85C287.609 122.85 290.059 127.85 289.929 141.12L288.499 140.85Z" fill="#03AA99"/>
<path d="M165.228 188.52C168.818 187.79 175.108 187.16 179.568 191.06C182.428 193.56 181.068 193.99 178.568 193.95C174.268 193.87 170.848 197.47 170.848 197.47C170.848 197.47 165.268 198.11 163.898 193.68C161.878 187.25 165.228 188.52 165.228 188.52Z" fill="#E09B36"/>
<path d="M151.583 221.21H179.153C185.443 221.35 189.743 220.87 192.823 218.13C196.413 214.96 197.033 209.29 196.463 204.96C195.793 203.21 191.983 204.51 187.293 203.71C183.023 202.99 180.563 201.07 178.123 197.82C175.683 194.57 174.403 193.3 169.613 190.97C168.141 190.211 166.509 189.813 164.853 189.81C165.918 187.56 167.359 185.507 169.113 183.74C172.203 180.88 166.683 179.74 160.383 182.57C156.409 184.552 152.87 187.305 149.973 190.67C148.193 192.67 143.523 192.4 138.463 188.51C133.403 184.62 115.663 168.51 96.2329 171.21C76.8029 173.91 63.3129 189.83 61.3329 201.27C59.3529 212.71 63.1729 219.2 66.4729 221.27L151.583 221.21Z" fill="#FABA50"/>
<path d="M63.0025 201.36C57.5925 198.43 43.7725 198.24 33.3525 206.54C23.2025 214.63 18.9725 231.54 27.3525 244.25C35.7325 256.96 52.2725 257.39 54.4125 255.59C56.5525 253.79 45.5825 247.28 42.6125 238.98C42.6125 238.98 48.5425 242.75 51.9225 243.11C55.3025 243.47 46.7625 234.73 45.9225 225.48C45.0825 216.23 49.5925 206.08 60.8425 206.48L63.0025 201.36Z" fill="#FABA50"/>
<path d="M196.16 211.14C195.56 211.26 195.78 207.92 195.05 208.24C194.32 208.56 195.5 210.24 195.5 210.24C193.42 209.72 190.5 206.73 191.65 204.88C192.8 203.03 196.24 203.88 197.04 204.17C198.25 204.7 199.08 208.73 196.16 211.14Z" fill="#071031"/>
<path d="M92.8984 185.8C95.2559 186.136 97.4717 187.127 99.2942 188.659C101.117 190.192 102.473 192.205 103.208 194.47C106.058 202.53 102.888 207.37 100.538 209.97C100.538 209.97 111.108 208.97 115.808 212.07C120.508 215.17 120.088 221.22 120.088 221.22H122.648C122.648 221.22 122.758 213.82 117.808 210.72C114.308 208.352 110.129 207.193 105.908 207.42C106.758 205.231 107.159 202.894 107.087 200.547C107.015 198.2 106.471 195.892 105.488 193.76C102.158 186.39 95.8384 185.38 92.8984 185.8Z" fill="#E09B36"/>
<path d="M131.797 209.54C131.797 209.54 142.797 208.31 147.467 211.83C152.137 215.35 151.577 221.21 151.577 221.21H154.197C154.197 221.21 154.887 214.94 150.197 211.12C145.507 207.3 134.937 208.47 131.797 209.54Z" fill="#E09B36"/>
<path d="M163.452 204.45C163.452 204.45 162.992 201.71 166.232 200.99C169.732 200.21 170.672 202.83 170.672 202.83C169.343 202.41 167.922 202.372 166.572 202.72C165.417 203.058 164.351 203.649 163.452 204.45Z" fill="#071031"/>
<path d="M176.67 22.1799L197.92 44.1799L190.8 52.1799L167.25 32.7999L176.67 22.1799ZM204.91 49.7599C205.525 50.2969 206.019 50.9581 206.36 51.6999C206.686 52.4151 206.876 53.185 206.92 53.9699C206.97 54.7521 206.868 55.5365 206.62 56.2799C206.367 57.0452 205.958 57.75 205.42 58.3499C204.888 58.9682 204.23 59.466 203.49 59.8099C202.78 60.1436 202.013 60.3404 201.23 60.3899C200.448 60.439 199.664 60.3371 198.92 60.0899C198.148 59.8294 197.437 59.4143 196.83 58.8699C195.615 57.7929 194.875 56.2799 194.77 54.6599C194.722 53.8753 194.821 53.0887 195.06 52.3399C195.313 51.5692 195.722 50.8585 196.26 50.2514C196.798 49.6444 197.455 49.1538 198.19 48.8099C198.906 48.485 199.675 48.2919 200.46 48.2399C201.253 48.1949 202.047 48.3001 202.8 48.5499C203.577 48.8078 204.295 49.2193 204.91 49.7599Z" fill="#0057FF"/>
<path d="M220.72 29.71L211.22 32.08C210.647 30.4463 210.34 28.7311 210.31 27C210.305 25.7412 210.511 24.4904 210.92 23.3C211.266 22.3266 211.777 21.4201 212.43 20.62C213.016 19.9187 213.64 19.251 214.3 18.62C214.92 18.04 215.46 17.49 215.92 16.97C216.357 16.5049 216.633 15.913 216.71 15.28C216.751 14.8745 216.689 14.4654 216.53 14.09C216.348 13.641 216.039 13.2551 215.64 12.98C215.128 12.6386 214.542 12.4228 213.93 12.35C213.051 12.2501 212.161 12.3249 211.31 12.57C210.508 12.7811 209.72 13.0416 208.95 13.35C208.002 13.7234 207.077 14.1542 206.18 14.64C205.229 15.1461 204.307 15.707 203.42 16.32C202.581 16.8839 201.794 17.5232 201.07 18.23L197.07 7.52C197.66 6.93 198.34 6.31 199.07 5.65C199.884 4.95119 200.75 4.31599 201.66 3.75C202.702 3.09239 203.788 2.50766 204.91 2C206.175 1.4598 207.483 1.02824 208.82 0.709999C211.032 0.13279 213.317 -0.106585 215.6 -1.03191e-06C217.704 0.104284 219.77 0.602932 221.69 1.47C223.539 2.32395 225.177 3.57336 226.49 5.13C227.905 6.83924 228.898 8.85671 229.39 11.02C229.819 12.4728 229.925 14.0019 229.7 15.5C229.499 16.6233 229.067 17.6926 228.43 18.64C227.804 19.5383 227.061 20.3489 226.22 21.05C225.36 21.76 224.54 22.51 223.75 23.29C222.948 24.0967 222.258 25.0083 221.7 26C221.081 27.1402 220.745 28.4126 220.72 29.71ZM224 36.78C224.207 37.5735 224.241 38.4022 224.1 39.21C223.966 39.9834 223.692 40.7257 223.29 41.4C222.883 42.0693 222.354 42.6562 221.73 43.13C221.082 43.6162 220.342 43.9676 219.556 44.1634C218.769 44.3592 217.951 44.3954 217.15 44.27C216.377 44.1476 215.634 43.8795 214.96 43.48C214.293 43.07 213.707 42.5413 213.23 41.92C212.749 41.2672 212.408 40.5214 212.23 39.73C212.029 38.9392 211.992 38.1158 212.12 37.31C212.239 36.5263 212.507 35.7727 212.91 35.09C213.316 34.4202 213.842 33.8304 214.46 33.35C215.107 32.8458 215.854 32.4845 216.65 32.29C217.435 32.0908 218.253 32.0601 219.05 32.2C219.825 32.3329 220.569 32.6111 221.24 33.02C221.916 33.4297 222.51 33.9621 222.99 34.59C223.472 35.2441 223.815 35.9892 224 36.78Z" fill="#0057FF"/>
</g>
<defs>
<clipPath id="clip0_1702_8541">
<rect width="430.17" height="256.37" fill="white"/>
</clipPath>
</defs>
</svg>
