<svg xmlns="http://www.w3.org/2000/svg" xmlns:xlink="http://www.w3.org/1999/xlink" width="67.557" height="70" viewBox="0 0 67.557 70">
  <defs>
    <linearGradient id="linear-gradient" x1="0.263" y1="0.219" x2="1.073" y2="0.757" gradientUnits="objectBoundingBox">
      <stop offset="0" stop-color="#2ea6d8"/>
      <stop offset="1" stop-color="#215a9f"/>
    </linearGradient>
    <linearGradient id="linear-gradient-4" x1="0.123" y1="0.159" x2="0.896" y2="1" gradientUnits="objectBoundingBox">
      <stop offset="0" stop-color="#dededc"/>
      <stop offset="1" stop-color="#a7a7a7"/>
    </linearGradient>
    <linearGradient id="linear-gradient-6" x1="0.858" y1="0.894" x2="0.343" y2="0.34" gradientUnits="objectBoundingBox">
      <stop offset="0" stop-color="#b52641"/>
      <stop offset="1" stop-color="#ce3a38"/>
    </linearGradient>
  </defs>
  <g id="vfp-logo" transform="translate(-1.184 -0.013)">
    <path id="Контур_29" data-name="Контур 29" d="M5.428,102.138H8.341c1.171,0,1.851-.523,1.851-1.694,0-1-.854-1.392-1.725-1.392H5.428Zm0-5.018h2.8c.95,0,1.694-.364,1.694-1.282,0-.934-.665-1.235-1.757-1.235H5.428Zm-2.39-4.495H8.7c2.8,0,3.514,1.757,3.514,2.929a2.331,2.331,0,0,1-1.393,2.374,2.632,2.632,0,0,1,1.757,2.754c0,.981-.364,3.434-4.606,3.434H3.038Z" transform="translate(-1.071 -53.498)" fill="#231f20"/>
    <path id="Контур_30" data-name="Контур 30" d="M36.635,95.728v5.223c1.219,0,2.849-.427,2.849-2.58C39.485,96.2,37.854,95.728,36.635,95.728Zm-2.39,5.223V95.728c-1.219,0-2.849.475-2.849,2.643C31.4,100.524,33.026,100.951,34.245,100.951Zm2.39-7.155c2.042,0,5.239,1.077,5.239,4.575s-3.2,4.511-5.239,4.511v1.234h-2.39v-1.234c-2.042,0-5.239-1.013-5.239-4.511S32.2,93.8,34.245,93.8V92.625h2.39Z" transform="translate(-16.072 -53.498)" fill="#231f20"/>
    <path id="Контур_31" data-name="Контур 31" d="M73.04,92.625v11.491H70.65V94.6H66.171v9.513H63.78V92.625Z" transform="translate(-36.16 -53.498)" fill="#231f20"/>
    <path id="Контур_32" data-name="Контур 32" d="M1.184,43.226A5.032,5.032,0,0,1,7.242,41.32c4.456,1.579,8.573,5.834,12.227,4.137,2.781-1.292,3.97-4.8,4.2-6.485-4.184,5.117-9.627-2-15.5-3.129a5.517,5.517,0,0,0-1.041-.1C2.156,35.74,1.184,43.226,1.184,43.226Z" transform="translate(0 -20.638)" fill="url(#linear-gradient)"/>
    <path id="Контур_33" data-name="Контур 33" d="M54.4,33.182a5.032,5.032,0,0,1,6.059-1.906c4.456,1.579,8.573,5.834,12.227,4.137,2.781-1.292,3.97-4.8,4.2-6.485-4.184,5.117-9.627-2-15.5-3.129a5.542,5.542,0,0,0-1.041-.1C55.373,25.7,54.4,33.182,54.4,33.182Z" transform="translate(-30.742 -14.836)" fill="url(#linear-gradient)"/>
    <path id="Контур_34" data-name="Контур 34" d="M107.9,23.12a5.034,5.034,0,0,1,6.06-1.906,20.433,20.433,0,0,1,2.907,1.348,3.374,3.374,0,0,1,1.043-2.089c.933-.878,2.063-.886,2.523-.018a2.894,2.894,0,0,1-.86,3.158,3,3,0,0,1-.345.279c2.466,1.38,4.794,2.465,6.96,1.459,2.782-1.292,3.97-4.8,4.2-6.486-4.185,5.117-9.627-2-15.5-3.129a5.515,5.515,0,0,0-1.041-.1C108.874,15.633,107.9,23.12,107.9,23.12Z" transform="translate(-61.646 -9.023)" fill="url(#linear-gradient)"/>
    <path id="Контур_35" data-name="Контур 35" d="M6.517,17.542a5.033,5.033,0,0,1,6.06-1.906,20.462,20.462,0,0,1,2.907,1.347A3.371,3.371,0,0,1,16.526,14.9c.933-.878,2.063-.886,2.523-.018a2.9,2.9,0,0,1-.86,3.157,2.96,2.96,0,0,1-.346.28c2.466,1.38,4.795,2.465,6.96,1.459,2.781-1.292,3.97-4.8,4.2-6.486-4.184,5.117-9.627-2-15.5-3.129a5.546,5.546,0,0,0-1.041-.1C7.489,10.055,6.517,17.542,6.517,17.542Z" transform="translate(-3.081 -5.801)" fill="url(#linear-gradient-4)"/>
    <path id="Контур_36" data-name="Контур 36" d="M59.736,7.5A5.032,5.032,0,0,1,65.8,5.594c4.456,1.579,8.573,5.834,12.226,4.137,2.781-1.292,3.97-4.8,4.2-6.486-4.184,5.117-9.627-2-15.5-3.129a5.516,5.516,0,0,0-1.041-.1C60.708.012,59.736,7.5,59.736,7.5Z" transform="translate(-33.824)" fill="url(#linear-gradient-4)"/>
    <path id="Контур_37" data-name="Контур 37" d="M48.87,58.668a5.031,5.031,0,0,1,6.059-1.906,20.37,20.37,0,0,1,2.907,1.348,3.378,3.378,0,0,1,1.043-2.09c.933-.878,2.063-.886,2.523-.018A3.109,3.109,0,0,1,60.2,59.439c2.466,1.38,4.795,2.465,6.96,1.46,2.781-1.292,3.97-4.8,4.2-6.486-4.184,5.117-9.627-2-15.5-3.129a5.541,5.541,0,0,0-1.041-.1C49.841,51.181,48.87,58.668,48.87,58.668Z" transform="translate(-27.547 -29.558)" fill="url(#linear-gradient-6)"/>
    <path id="Контур_38" data-name="Контур 38" d="M102.37,48.605a5.032,5.032,0,0,1,6.059-1.906c4.457,1.579,8.573,5.834,12.227,4.137,2.781-1.291,3.97-4.8,4.2-6.485-4.185,5.117-9.627-2.005-15.5-3.129a5.544,5.544,0,0,0-1.041-.1C103.342,41.118,102.37,48.605,102.37,48.605Z" transform="translate(-58.451 -23.745)" fill="url(#linear-gradient-6)"/>
    <path id="Контур_39" data-name="Контур 39" d="M2.262,137.264v1.413H3.383a1.272,1.272,0,0,0,.716-.165.658.658,0,0,0,.241-.576q0-.672-.95-.672Zm-.621,4.067v-4.6H3.662a1.294,1.294,0,0,1,.957.336,1.1,1.1,0,0,1,.342.824.993.993,0,0,1-.615.963q.133.051.209.089a1.183,1.183,0,0,1,.209.127.834.834,0,0,1,.215.2,1.174,1.174,0,0,1,.139.291,1.237,1.237,0,0,1,.063.405,1.284,1.284,0,0,1-.418.976,1.61,1.61,0,0,1-1.147.386Zm.621-2.148V140.8H3.586a1.048,1.048,0,0,0,.722-.222.793.793,0,0,0,.253-.621q0-.773-1.077-.773Zm6.447-.076H8.164a.74.74,0,0,0-.792-.716.763.763,0,0,0-.545.2,1.03,1.03,0,0,0-.3.462,2.166,2.166,0,0,0-.076.6q0,1.286.912,1.286a.7.7,0,0,0,.507-.209,1.035,1.035,0,0,0,.291-.583h.545a1.7,1.7,0,0,1-.108.431,1.639,1.639,0,0,1-.228.405,1,1,0,0,1-.412.323,1.477,1.477,0,0,1-.615.12,1.375,1.375,0,0,1-1.1-.469,1.8,1.8,0,0,1-.4-1.21,2.119,2.119,0,0,1,.405-1.343,1.426,1.426,0,0,1,1.2-.519,1.125,1.125,0,0,1,.912.361A1.453,1.453,0,0,1,8.709,139.108Zm2.963,1.172h.564a1.391,1.391,0,0,1-1.508,1.147,1.356,1.356,0,0,1-1.09-.469,1.8,1.8,0,0,1-.4-1.21,2.126,2.126,0,0,1,.4-1.343,1.433,1.433,0,0,1,1.2-.519,1.224,1.224,0,0,1,1.071.526,2.443,2.443,0,0,1,.367,1.432H9.841a1.2,1.2,0,0,0,.247.811.9.9,0,0,0,.722.285.877.877,0,0,0,.608-.222A.609.609,0,0,0,11.672,140.28Zm-1.831-.887H11.7q-.063-1-.944-1a.847.847,0,0,0-.653.3A1.013,1.013,0,0,0,9.841,139.393Zm4.718-1a.925.925,0,0,0-.431.1.753.753,0,0,0-.272.215,1.1,1.1,0,0,0-.146.317,2.043,2.043,0,0,0-.063.323q-.006.133-.006.3a1.732,1.732,0,0,0,.228.938.748.748,0,0,0,.672.355.851.851,0,0,0,.608-.266,1.158,1.158,0,0,0,.279-.868q0-.165-.013-.3t-.032-.31a.993.993,0,0,0-.089-.3,1.121,1.121,0,0,0-.152-.253.558.558,0,0,0-.241-.184A.853.853,0,0,0,14.56,138.392Zm-1.482,4.264V137.98H13.6v.475a1.518,1.518,0,0,1,.4-.418,1.075,1.075,0,0,1,.615-.152,1.217,1.217,0,0,1,1.014.469,1.871,1.871,0,0,1,.374,1.2,2.863,2.863,0,0,1-.044.507,2.1,2.1,0,0,1-.146.494,1.635,1.635,0,0,1-.26.443,1.217,1.217,0,0,1-.418.3,1.386,1.386,0,0,1-.589.12.972.972,0,0,1-.906-.488v1.717Zm3.544-3a2.133,2.133,0,0,1,.1-.64,1.9,1.9,0,0,1,.279-.564,1.294,1.294,0,0,1,.488-.412,1.644,1.644,0,0,1,1.381,0,1.294,1.294,0,0,1,.488.412,1.9,1.9,0,0,1,.279.564,2.133,2.133,0,0,1,.1.64,2,2,0,0,1-.405,1.248,1.353,1.353,0,0,1-1.147.526,1.37,1.37,0,0,1-1.153-.526A2.022,2.022,0,0,1,16.622,139.652Zm.576,0a2.6,2.6,0,0,0,.019.31,2.1,2.1,0,0,0,.089.336,1.375,1.375,0,0,0,.171.323.918.918,0,0,0,.285.228.935.935,0,0,0,.412.089.9.9,0,0,0,.405-.089.829.829,0,0,0,.285-.228,1.122,1.122,0,0,0,.171-.323,1.473,1.473,0,0,0,.089-.336,1.963,1.963,0,0,0,.025-.31,1.778,1.778,0,0,0-.044-.393,1.636,1.636,0,0,0-.139-.412.788.788,0,0,0-.3-.342.869.869,0,0,0-.488-.133.9.9,0,0,0-.494.133.845.845,0,0,0-.3.342,1.808,1.808,0,0,0-.177.8Zm6-.545H22.65a.74.74,0,0,0-.792-.716.763.763,0,0,0-.545.2,1.03,1.03,0,0,0-.3.462,2.166,2.166,0,0,0-.076.6q0,1.286.912,1.286a.7.7,0,0,0,.507-.209,1.035,1.035,0,0,0,.291-.583h.545a1.7,1.7,0,0,1-.108.431,1.639,1.639,0,0,1-.228.405,1,1,0,0,1-.412.323,1.477,1.477,0,0,1-.615.12,1.375,1.375,0,0,1-1.1-.469,1.8,1.8,0,0,1-.4-1.21,2.119,2.119,0,0,1,.405-1.343,1.426,1.426,0,0,1,1.2-.519,1.125,1.125,0,0,1,.912.361A1.453,1.453,0,0,1,23.194,139.108Zm3.388,0h-.545a.74.74,0,0,0-.792-.716.763.763,0,0,0-.545.2,1.03,1.03,0,0,0-.3.462,2.166,2.166,0,0,0-.076.6q0,1.286.912,1.286a.7.7,0,0,0,.507-.209,1.035,1.035,0,0,0,.291-.583h.545a1.7,1.7,0,0,1-.108.431,1.639,1.639,0,0,1-.228.405,1,1,0,0,1-.412.323,1.477,1.477,0,0,1-.615.12,1.375,1.375,0,0,1-1.1-.469,1.8,1.8,0,0,1-.4-1.21,2.119,2.119,0,0,1,.405-1.343,1.426,1.426,0,0,1,1.2-.519,1.125,1.125,0,0,1,.912.361A1.453,1.453,0,0,1,26.582,139.108Zm1.278-1.128v2.509h.013l1.641-2.509H30.1v3.351h-.564v-2.509h-.013l-1.641,2.509H27.3V137.98Zm3.79,0v2.509h.013L33.3,137.98h.589v3.351h-.564v-2.509h-.013l-1.641,2.509h-.589V137.98Zm.241-1.248a.579.579,0,0,0,.653.507.591.591,0,0,0,.431-.133.917.917,0,0,0,.222-.374h.31a.838.838,0,0,1-.038.241,1.23,1.23,0,0,1-.12.279.666.666,0,0,1-.3.253,1.1,1.1,0,0,1-.494.1,1.282,1.282,0,0,1-.519-.1.711.711,0,0,1-.3-.253,1.532,1.532,0,0,1-.127-.279,1.017,1.017,0,0,1-.032-.247Zm5.659,2.376H37a.74.74,0,0,0-.792-.716.763.763,0,0,0-.545.2,1.03,1.03,0,0,0-.3.462,2.166,2.166,0,0,0-.076.6q0,1.286.912,1.286a.7.7,0,0,0,.507-.209,1.035,1.035,0,0,0,.291-.583h.545a1.7,1.7,0,0,1-.108.431,1.639,1.639,0,0,1-.228.405,1,1,0,0,1-.412.323,1.477,1.477,0,0,1-.615.12,1.375,1.375,0,0,1-1.1-.469,1.8,1.8,0,0,1-.4-1.21A2.119,2.119,0,0,1,35.1,138.4a1.426,1.426,0,0,1,1.2-.519,1.125,1.125,0,0,1,.912.361A1.453,1.453,0,0,1,37.55,139.108Zm1.278-1.128v1.457l1.438-1.457h.716l-1.28,1.248,1.356,2.1h-.672l-1.083-1.71-.475.443v1.267h-.564V137.98ZM42.146,139h-.519q0-1.115,1.381-1.115a1.647,1.647,0,0,1,.31.032,1.9,1.9,0,0,1,.4.114.762.762,0,0,1,.38.291.81.81,0,0,1,.152.5v1.913q0,.209.184.209a1.065,1.065,0,0,0,.184-.025v.412a1.7,1.7,0,0,1-.3.063.868.868,0,0,1-.3-.044.361.361,0,0,1-.184-.12.634.634,0,0,1-.082-.158,1.474,1.474,0,0,1-.032-.19,2.855,2.855,0,0,1-.272.253,1.42,1.42,0,0,1-.38.2,1.575,1.575,0,0,1-.557.1,1.075,1.075,0,0,1-.754-.266.907.907,0,0,1-.291-.7,1.592,1.592,0,0,1,.019-.26.9.9,0,0,1,.1-.26.748.748,0,0,1,.2-.253,1.221,1.221,0,0,1,.38-.19,2.228,2.228,0,0,1,.583-.114,5.067,5.067,0,0,0,.64-.082.4.4,0,0,0,.247-.133.494.494,0,0,0,.057-.272q0-.538-.779-.538a1.043,1.043,0,0,0-.386.063.456.456,0,0,0-.228.171.867.867,0,0,0-.146.412Zm1.539,1.172v-.551a2.715,2.715,0,0,1-.925.209,2.277,2.277,0,0,0-.241.044,1.492,1.492,0,0,0-.222.082.407.407,0,0,0-.2.158.47.47,0,0,0-.063.253q0,.589.615.589a1.177,1.177,0,0,0,.716-.228A.671.671,0,0,0,43.685,140.172Zm4.16-2.192v3.351h-.564v-1.413h-.716l-.792,1.413h-.64l.83-1.432a1.009,1.009,0,0,1-.519-.3.906.906,0,0,1-.234-.64.871.871,0,0,1,.317-.722,1.413,1.413,0,0,1,.893-.253Zm-.564,1.5v-1.026H46.4q-.627,0-.627.513t.627.513Zm-43.2,7.836v1.679H3.548v-1.717a1.056,1.056,0,0,1-.348.348.968.968,0,0,1-.526.139,1.048,1.048,0,0,1-.95-.488,2.5,2.5,0,0,1-.3-1.33,2.119,2.119,0,0,1,.336-1.229,1.027,1.027,0,0,1,.887-.494,1.081,1.081,0,0,1,.906.481v-1.634h.538v1.641a1.052,1.052,0,0,1,1.78.006,2.051,2.051,0,0,1,.348,1.223,2.455,2.455,0,0,1-.317,1.337,1.054,1.054,0,0,1-.957.488.943.943,0,0,1-.843-.45ZM5.632,146a1.844,1.844,0,0,0-.209-.912.647.647,0,0,0-.589-.38q-.748,0-.748,1.387a1.443,1.443,0,0,0,.222.912.678.678,0,0,0,.526.266Q5.632,147.274,5.632,146ZM2,146.007q0,1.267.767,1.267a.708.708,0,0,0,.538-.26,1.319,1.319,0,0,0,.241-.9,3.169,3.169,0,0,0-.07-.7,1.064,1.064,0,0,0-.253-.5.578.578,0,0,0-.456-.2.622.622,0,0,0-.576.374A2.027,2.027,0,0,0,2,146.007Zm7.254.608H9.82a1.391,1.391,0,0,1-1.508,1.147,1.356,1.356,0,0,1-1.09-.469,1.8,1.8,0,0,1-.4-1.21,2.126,2.126,0,0,1,.4-1.343,1.433,1.433,0,0,1,1.2-.519,1.224,1.224,0,0,1,1.071.526,2.443,2.443,0,0,1,.367,1.432H7.425a1.2,1.2,0,0,0,.247.811.9.9,0,0,0,.722.285A.877.877,0,0,0,9,147.052.609.609,0,0,0,9.256,146.615Zm-1.831-.887H9.288q-.063-1-.944-1a.847.847,0,0,0-.653.3A1.013,1.013,0,0,0,7.425,145.728Zm3.635-1.413H13.4V147.2h.374v1.451h-.513v-.982H10.825v.982h-.513V147.2h.374a3.8,3.8,0,0,0,.374-1.793Zm1.78,2.882v-2.414H11.6v.608a4.227,4.227,0,0,1-.336,1.805Zm3.872-.583h.564a1.391,1.391,0,0,1-1.508,1.147,1.356,1.356,0,0,1-1.09-.469,1.8,1.8,0,0,1-.4-1.21,2.126,2.126,0,0,1,.4-1.343,1.433,1.433,0,0,1,1.2-.519,1.224,1.224,0,0,1,1.071.526,2.443,2.443,0,0,1,.367,1.432H14.881a1.2,1.2,0,0,0,.247.811.9.9,0,0,0,.722.285.877.877,0,0,0,.608-.222A.609.609,0,0,0,16.712,146.615Zm-1.831-.887h1.863q-.063-1-.944-1a.847.847,0,0,0-.653.3A1.013,1.013,0,0,0,14.881,145.728Zm4.718-1a.925.925,0,0,0-.431.1.753.753,0,0,0-.272.215,1.1,1.1,0,0,0-.146.317,2.042,2.042,0,0,0-.063.323q-.006.133-.006.3a1.732,1.732,0,0,0,.228.938.748.748,0,0,0,.672.355.851.851,0,0,0,.608-.266,1.158,1.158,0,0,0,.279-.868q0-.165-.013-.3t-.032-.31a.993.993,0,0,0-.089-.3,1.121,1.121,0,0,0-.152-.253.558.558,0,0,0-.241-.184A.853.853,0,0,0,19.6,144.727Zm-1.482,4.264v-4.675h.526v.475a1.518,1.518,0,0,1,.4-.418,1.075,1.075,0,0,1,.615-.152,1.217,1.217,0,0,1,1.014.469,1.871,1.871,0,0,1,.374,1.2A2.863,2.863,0,0,1,21,146.4a2.1,2.1,0,0,1-.146.494,1.635,1.635,0,0,1-.26.443,1.217,1.217,0,0,1-.418.3,1.386,1.386,0,0,1-.589.12.972.972,0,0,1-.906-.488v1.717Zm4.229-3.655h-.519q0-1.115,1.381-1.115a1.647,1.647,0,0,1,.31.032,1.894,1.894,0,0,1,.4.114.762.762,0,0,1,.38.291.81.81,0,0,1,.152.5v1.913q0,.209.184.209a1.064,1.064,0,0,0,.184-.025v.412a1.7,1.7,0,0,1-.3.063.868.868,0,0,1-.3-.044.361.361,0,0,1-.184-.12.634.634,0,0,1-.082-.158,1.473,1.473,0,0,1-.032-.19,2.856,2.856,0,0,1-.272.253,1.42,1.42,0,0,1-.38.2,1.576,1.576,0,0,1-.557.1,1.075,1.075,0,0,1-.754-.266.907.907,0,0,1-.291-.7,1.592,1.592,0,0,1,.019-.26.9.9,0,0,1,.1-.26.748.748,0,0,1,.2-.253,1.221,1.221,0,0,1,.38-.19,2.228,2.228,0,0,1,.583-.114,5.075,5.075,0,0,0,.64-.082.4.4,0,0,0,.247-.133.494.494,0,0,0,.057-.272q0-.539-.779-.538a1.043,1.043,0,0,0-.386.063.456.456,0,0,0-.228.171.867.867,0,0,0-.146.412Zm1.539,1.172v-.551a2.716,2.716,0,0,1-.925.209,2.269,2.269,0,0,0-.241.044,1.49,1.49,0,0,0-.222.082.407.407,0,0,0-.2.158.47.47,0,0,0-.063.253q0,.589.615.589a1.177,1.177,0,0,0,.716-.228A.671.671,0,0,0,23.885,146.507Zm2.233-2.192V147.2h1.571v-2.882h.564V147.2h.367v1.451h-.507v-.982H25.554v-3.351Zm3.784,0v2.509h.013l1.641-2.509h.589v3.351h-.564v-2.509h-.013l-1.641,2.509h-.589v-3.351Zm5.716,0v3.351h-.564v-1.413h-.716l-.792,1.413h-.64l.83-1.432a1.009,1.009,0,0,1-.519-.3.906.906,0,0,1-.234-.64.871.871,0,0,1,.317-.722,1.413,1.413,0,0,1,.893-.253Zm-.564,1.5v-1.026h-.881q-.627,0-.627.513t.627.513Zm3.482-1.5h2.692v3.351h-.564v-2.882H39.1v2.882h-.564Zm4.008,0H45v3.351h-.564v-2.882H43.108v1.527q0,1.406-.868,1.406a1.308,1.308,0,0,1-.361-.051v-.437a1.67,1.67,0,0,0,.228.013.364.364,0,0,0,.253-.076.556.556,0,0,0,.133-.317,3.838,3.838,0,0,0,.051-.729Zm3.936,1.02h-.519q0-1.115,1.381-1.115a1.647,1.647,0,0,1,.31.032,1.894,1.894,0,0,1,.4.114.762.762,0,0,1,.38.291.81.81,0,0,1,.152.5v1.913q0,.209.184.209a1.064,1.064,0,0,0,.184-.025v.412a1.7,1.7,0,0,1-.3.063.868.868,0,0,1-.3-.044.361.361,0,0,1-.184-.12.634.634,0,0,1-.082-.158,1.474,1.474,0,0,1-.032-.19,2.856,2.856,0,0,1-.272.253,1.42,1.42,0,0,1-.38.2,1.576,1.576,0,0,1-.557.1,1.075,1.075,0,0,1-.754-.266.907.907,0,0,1-.291-.7,1.592,1.592,0,0,1,.019-.26.9.9,0,0,1,.1-.26.748.748,0,0,1,.2-.253,1.221,1.221,0,0,1,.38-.19,2.228,2.228,0,0,1,.583-.114,5.075,5.075,0,0,0,.64-.082.4.4,0,0,0,.247-.133.494.494,0,0,0,.057-.272q0-.539-.779-.538a1.043,1.043,0,0,0-.386.063.456.456,0,0,0-.228.171.867.867,0,0,0-.146.412Zm1.539,1.172v-.551a2.716,2.716,0,0,1-.925.209,2.268,2.268,0,0,0-.241.044,1.49,1.49,0,0,0-.222.082.407.407,0,0,0-.2.158.47.47,0,0,0-.063.253q0,.589.615.589a1.177,1.177,0,0,0,.716-.228A.671.671,0,0,0,48.02,146.507Zm2.233-1.723v.919h.817a.891.891,0,0,0,.519-.114.46.46,0,0,0,.152-.393.347.347,0,0,0-.152-.31.93.93,0,0,0-.507-.1Zm0,1.362V147.2H51.26q.678,0,.678-.519t-.735-.532Zm-.564,1.52v-3.351h1.52a1.186,1.186,0,0,1,.811.247.762.762,0,0,1,.285.608.691.691,0,0,1-.165.469.813.813,0,0,1-.4.253.853.853,0,0,1,.76.887.765.765,0,0,1-.323.646,1.474,1.474,0,0,1-.906.241Zm4.111-2.331h-.519q0-1.115,1.381-1.115a1.647,1.647,0,0,1,.31.032,1.894,1.894,0,0,1,.4.114.762.762,0,0,1,.38.291.81.81,0,0,1,.152.5v1.913q0,.209.184.209a1.064,1.064,0,0,0,.184-.025v.412a1.7,1.7,0,0,1-.3.063.868.868,0,0,1-.3-.044.361.361,0,0,1-.184-.12.634.634,0,0,1-.082-.158,1.475,1.475,0,0,1-.032-.19,2.855,2.855,0,0,1-.272.253,1.42,1.42,0,0,1-.38.2,1.576,1.576,0,0,1-.557.1,1.075,1.075,0,0,1-.754-.266.907.907,0,0,1-.291-.7,1.592,1.592,0,0,1,.019-.26.9.9,0,0,1,.1-.26.748.748,0,0,1,.2-.253,1.221,1.221,0,0,1,.38-.19,2.228,2.228,0,0,1,.583-.114,5.075,5.075,0,0,0,.64-.082.4.4,0,0,0,.247-.133.493.493,0,0,0,.057-.272q0-.539-.779-.538a1.043,1.043,0,0,0-.386.063.456.456,0,0,0-.228.171.867.867,0,0,0-.146.412Zm1.539,1.172v-.551a2.716,2.716,0,0,1-.925.209,2.269,2.269,0,0,0-.241.044,1.49,1.49,0,0,0-.222.082.407.407,0,0,0-.2.158.47.47,0,0,0-.063.253q0,.589.615.589a1.177,1.177,0,0,0,.716-.228A.671.671,0,0,0,55.34,146.507Zm2.233-2.192v1.349h1.565v-1.349H59.7v3.351h-.564v-1.533H57.573v1.533h-.564v-3.351Zm3.673,0v2.509h.013l1.641-2.509h.589v3.351h-.564v-2.509h-.013l-1.641,2.509h-.589v-3.351Zm5.716,0v3.351H66.4v-1.413h-.716l-.792,1.413h-.64l.83-1.432a1.009,1.009,0,0,1-.519-.3.906.906,0,0,1-.234-.64.871.871,0,0,1,.317-.722,1.413,1.413,0,0,1,.893-.253Zm-.564,1.5v-1.026h-.881q-.627,0-.627.513t.627.513Z" transform="translate(-0.136 -78.977)" fill="#231f20"/>
  </g>
</svg>
