<svg width="35" height="35" viewBox="0 0 35 35" fill="none" xmlns="http://www.w3.org/2000/svg">
<path d="M17.4546 0C7.815 0 0 7.83499 0 17.5C0 27.165 7.815 35 17.4546 35C27.0941 35 34.9091 27.165 34.9091 17.5C34.9091 7.83499 27.0941 0 17.4546 0ZM26.3084 19.3927C27.122 20.1894 27.9826 20.9391 28.713 21.8182C29.0365 22.207 29.3415 22.6091 29.5736 23.0613C29.905 23.7062 29.6058 24.4134 29.0301 24.4517L25.4542 24.4509C24.5307 24.5276 23.7957 24.1541 23.1761 23.5211C22.6815 23.0166 22.2225 22.4777 21.7461 21.956C21.5515 21.7419 21.3465 21.5403 21.1022 21.3817C20.6148 21.0637 20.1912 21.1611 19.9119 21.6717C19.6273 22.1913 19.5623 22.767 19.5352 23.3453C19.4962 24.1906 19.242 24.4116 18.3959 24.4513C16.5882 24.5362 14.8729 24.2612 13.2787 23.3474C11.8723 22.5414 10.7838 21.4039 9.83526 20.116C7.9882 17.6053 6.57363 14.8497 5.30261 12.0149C5.01655 11.3765 5.22583 11.0349 5.9283 11.0217C7.09539 10.9991 8.26248 11.002 9.42956 11.0206C9.90454 11.0281 10.2188 11.3006 10.4013 11.75C11.032 13.3057 11.8052 14.7859 12.7741 16.1587C13.0323 16.5243 13.2958 16.8888 13.6712 17.147C14.0854 17.432 14.4011 17.3378 14.5965 16.8741C14.7215 16.5794 14.7754 16.2643 14.8025 15.9485C14.8954 14.8669 14.9065 13.7855 14.7457 12.7081C14.6458 12.0339 14.2676 11.5985 13.5972 11.471C13.2558 11.4062 13.3058 11.2795 13.4719 11.084C13.7601 10.746 14.0301 10.5369 14.5697 10.5369L18.6099 10.5362C19.2466 10.6615 19.3895 10.9479 19.4759 11.591L19.4795 16.0925C19.472 16.3413 19.6041 17.0789 20.0498 17.2418C20.4069 17.36 20.6426 17.0728 20.8562 16.8462C21.8251 15.8153 22.5154 14.5987 23.1336 13.3394C23.4064 12.784 23.6418 12.2094 23.8703 11.6336C24.0403 11.2079 24.3046 10.9984 24.7839 11.0056L28.6744 11.0102C28.789 11.0102 28.9055 11.0113 29.019 11.031C29.6747 11.1434 29.8543 11.4263 29.6515 12.0676C29.3322 13.0751 28.7119 13.9144 28.1055 14.7559C27.4555 15.6567 26.7623 16.5261 26.1188 17.4309C25.5274 18.258 25.5742 18.6744 26.3084 19.3927Z" fill="black"/>
</svg>
