<svg width="35" height="35" viewBox="0 0 35 35" fill="none" xmlns="http://www.w3.org/2000/svg">
<path fill-rule="evenodd" clip-rule="evenodd" d="M23.5298 21.1562C23.3948 21.1557 23.2643 21.205 23.1633 21.2945C23.0627 21.3726 23.0124 21.6674 23.0124 22.1791V22.4347L23.0447 22.4665H23.9826L24.0149 22.4347V21.8062C24.0149 21.3725 23.8532 21.1559 23.5298 21.1562V21.1562ZM19.4441 21.1347C19.3457 21.136 19.249 21.1597 19.1612 21.204C19.0734 21.2483 18.9969 21.312 18.9374 21.3903V25.0881C19.1027 25.2657 19.2716 25.3544 19.4441 25.3544H19.5411C19.764 25.3544 19.8753 25.1839 19.8753 24.8427V21.6997C19.8465 21.323 19.7028 21.1347 19.4441 21.1347ZM13.5257 20.2716H14.636V24.8325C14.636 25.0951 14.7187 25.2264 14.8839 25.2264H14.9595C15.1319 25.2264 15.3475 25.0773 15.6063 24.7792V20.2716H16.7274V26.2175H15.6063V25.5783H15.5955C15.1499 26.061 14.7187 26.3024 14.3018 26.3026H14.2803C14.1712 26.3065 14.0629 26.2832 13.965 26.2348C13.8672 26.1864 13.7829 26.1145 13.7197 26.0255C13.5903 25.8909 13.5256 25.4967 13.5257 24.8427V20.2716ZM23.4975 20.1333H23.6161C24.651 20.1333 25.1685 20.7548 25.1684 21.9978V23.3726H23.0447L23.0124 23.4044V24.4273C23.0124 25.0381 23.1597 25.3436 23.4544 25.3437H23.5514C23.6541 25.341 23.7544 25.3117 23.8425 25.2587C23.9574 25.1732 24.0149 24.9387 24.0149 24.5554V24.097H25.1685V24.3526C25.1685 24.8217 25.1254 25.1735 25.0391 25.4077C24.8019 26.054 24.288 26.3772 23.4975 26.3774C23.2649 26.3797 23.0341 26.3362 22.8183 26.2493C22.193 25.9652 21.8804 25.4183 21.8804 24.6087V21.8272C21.8815 21.587 21.9253 21.3489 22.0098 21.124C22.3332 20.4637 22.8291 20.1334 23.4975 20.1333H23.4975ZM17.827 18.1617H18.9374V20.7408H18.9589C19.2823 20.3782 19.6093 20.197 19.9399 20.1973C20.6658 20.1973 21.0288 20.7087 21.0288 21.7315V24.9923C21.0271 25.1858 21.0054 25.3785 20.9641 25.5675C20.7988 26.0433 20.5077 26.2813 20.0909 26.2816H19.9399C19.5878 26.2816 19.2608 26.1182 18.9589 25.7914H18.9374V26.2176H17.827V18.1617ZM9.67704 18.1617H13.5364V19.3127H12.2644L12.2321 19.3445V26.2175H10.9815V19.3445L10.9491 19.3127H9.67704V18.1617ZM16.5442 16.0734C14.9702 16.0734 13.6334 16.0947 12.5339 16.1374C11.1108 16.1659 10.3418 16.2192 10.2269 16.2972C9.54415 16.5318 9.04822 16.9047 8.73916 17.4159C8.52362 17.8281 8.40505 18.1158 8.38343 18.279C8.2756 19.437 8.22171 20.6447 8.22175 21.902V22.5095C8.22175 23.5679 8.25409 24.4807 8.31877 25.2479C8.31877 26.2708 8.59905 27.0202 9.15959 27.4961C9.61959 27.9012 10.0867 28.1356 10.561 28.1994C12.3003 28.2989 14.3054 28.3486 16.5765 28.3484H18.3121C20.1879 28.3484 21.8408 28.3165 23.271 28.2526C24.1119 28.2526 24.7049 28.1603 25.0498 27.9755C25.7326 27.6274 26.1925 27.1124 26.4297 26.4306C26.5447 26.2385 26.6237 24.9704 26.6669 22.6263V21.7955C26.6669 20.7581 26.6345 19.895 26.5698 19.2062C26.5698 18.1833 26.3111 17.4409 25.7936 16.979C25.4846 16.6169 24.9959 16.3611 24.3275 16.2117C22.6026 16.1197 20.6011 16.0736 18.3229 16.0734L16.5442 16.0734ZM17.3069 10.0849L17.5118 10.1172C17.7059 10.1952 17.8029 10.3514 17.8029 10.5859V13.6654C17.8029 14.063 17.6412 14.262 17.3178 14.2621H17.3069C17.0123 14.2621 16.865 14.1023 16.865 13.7827V10.5008C16.865 10.2592 17.0123 10.1206 17.3069 10.0849V10.0849ZM19.9266 9.19004L19.8943 9.22181V14.0701C19.8915 14.2849 19.9132 14.4994 19.959 14.7093C20.0739 15.0719 20.3147 15.2531 20.6812 15.2528C21.0909 15.2528 21.5185 15.0113 21.9641 14.5285V15.1252L21.9964 15.157H23.0745L23.1068 15.1252V9.22182L23.0745 9.19004H21.9964L21.9641 9.22182V13.7187C21.7053 14.0028 21.4933 14.1448 21.3281 14.1448H21.2849C21.1125 14.1448 21.0262 13.985 21.0262 13.6654V9.22182L20.9939 9.19004L19.9266 9.19004ZM17.3069 9.05127C16.8614 9.05127 16.4985 9.16856 16.2182 9.40315C15.866 9.62326 15.6899 10.0921 15.6899 10.8097V13.3668C15.6866 13.6127 15.7011 13.8585 15.7331 14.1023C15.963 14.9122 16.4913 15.317 17.3178 15.3169L17.8568 15.2528C18.5898 15.0187 18.9564 14.5073 18.9564 13.7187V10.5326C18.9589 10.3539 18.9259 10.1765 18.8593 10.0106C18.5863 9.37091 18.1012 9.05112 17.404 9.05127L17.3069 9.05127ZM11.5503 7.08019L11.5287 7.10169L11.712 7.71946C12.5816 10.4901 13.0164 11.925 13.0164 12.0242V15.1252L13.0488 15.157H14.2669L14.2993 15.1252V11.8752C14.2993 11.8111 14.788 10.22 15.7655 7.10168H15.7547L15.7331 7.08018H14.4718L13.6956 10.298H13.6201C13.3829 9.30361 13.1709 8.47602 12.9841 7.81524C12.8762 7.32505 12.808 7.08003 12.7793 7.08018L11.5503 7.08019ZM17.4443 0.774902C26.7997 0.774902 34.3838 8.3592 34.3838 17.7146C34.3838 27.0699 26.7997 34.6537 17.4443 34.6537C8.08899 34.6537 0.504883 27.0699 0.504883 17.7146C0.504883 8.3592 8.08893 0.774902 17.4443 0.774902Z" fill="black"/>
</svg>
